<svg width="24" height="24" viewBox="0 0 24 24" fill="none" xmlns="http://www.w3.org/2000/svg">
<path d="M9.69716 14.7772C13.443 14.7772 16.6052 15.3936 16.6052 17.774C16.6052 20.1544 13.4227 20.7503 9.69716 20.7503C5.95131 20.7503 2.78906 20.133 2.78906 17.7535C2.78906 15.373 5.97068 14.7772 9.69716 14.7772ZM18.4465 7.85515C18.9035 7.85515 19.2745 8.23228 19.2745 8.69482V9.77824H20.3826C20.8387 9.77824 21.2106 10.1554 21.2106 10.6179C21.2106 11.0804 20.8387 11.4576 20.3826 11.4576H19.2745V12.542C19.2745 13.0045 18.9035 13.3816 18.4465 13.3816C17.9903 13.3816 17.6184 13.0045 17.6184 12.542V11.4576H16.5122C16.0551 11.4576 15.6842 11.0804 15.6842 10.6179C15.6842 10.1554 16.0551 9.77824 16.5122 9.77824H17.6184V8.69482C17.6184 8.23228 17.9903 7.85515 18.4465 7.85515ZM9.69716 3.24976C12.2343 3.24976 14.2681 5.30987 14.2681 7.87987C14.2681 10.4499 12.2343 12.51 9.69716 12.51C7.15998 12.51 5.12618 10.4499 5.12618 7.87987C5.12618 5.30987 7.15998 3.24976 9.69716 3.24976Z" fill="#1A1A1A"/>
</svg>
