<svg width="20" height="20" viewBox="0 0 20 20" fill="none" xmlns="http://www.w3.org/2000/svg">
<path fill-rule="evenodd" clip-rule="evenodd" d="M10 18.5C14.6944 18.5 18.5 14.6944 18.5 10C18.5 5.30558 14.6944 1.5 10 1.5C5.30558 1.5 1.5 5.30558 1.5 10C1.5 14.6944 5.30558 18.5 10 18.5ZM10 20C15.5228 20 20 15.5228 20 10C20 4.47715 15.5228 0 10 0C4.47715 0 0 4.47715 0 10C0 15.5228 4.47715 20 10 20ZM9 5C9 4.44772 9.44771 4 10 4C10.5523 4 11 4.44772 11 5V9H14.6667C15.219 9 15.6667 9.44771 15.6667 10C15.6667 10.5523 15.219 11 14.6667 11H11V14.6667C11 15.219 10.5523 15.6667 10 15.6667C9.44771 15.6667 9 15.219 9 14.6667V11H5C4.44772 11 4 10.5523 4 10C4 9.44771 4.44772 9 5 9H9V5Z" fill="#1A1A1A"/>
</svg>
