<svg width="24" height="24" viewBox="0 0 24 24" fill="none" xmlns="http://www.w3.org/2000/svg">
<path d="M22.0296 10.1596C18.7662 17.071 17.7044 17.071 17.071 17.071H10.8297C8.64371 17.071 6.96871 15.7853 6.56225 13.7943C6.54977 13.7335 5.314 7.66771 4.99804 5.9732C4.84279 5.14233 4.44803 4.58841 3.02814 4.58841C2.38139 4.58841 1.85791 4.06492 1.85791 3.41817C1.85791 2.77141 2.38139 2.24792 3.02814 2.24792C5.38422 2.24792 6.90084 3.41817 7.29872 5.54333C7.61156 7.2199 8.84343 13.2654 8.85591 13.327C9.10478 14.5487 10.1993 14.7313 10.8297 14.7313H16.7628C17.4002 14.0463 18.8528 11.407 19.9131 9.16017C20.1892 8.57582 20.8875 8.32695 21.471 8.60157C22.0562 8.87697 22.3058 9.57443 22.0296 10.1596ZM10.0495 17.8512C8.97215 17.8512 8.09916 18.7242 8.09916 19.8016C8.09916 20.879 8.97215 21.752 10.0495 21.752C11.1269 21.752 11.9999 20.879 11.9999 19.8016C11.9999 18.7242 11.1269 17.8512 10.0495 17.8512ZM17.071 17.8512C15.9936 17.8512 15.1206 18.7242 15.1206 19.8016C15.1206 20.879 15.9936 21.752 17.071 21.752C18.1483 21.752 19.0213 20.879 19.0213 19.8016C19.0213 18.7242 18.1483 17.8512 17.071 17.8512ZM13.2973 11.4882C13.3754 11.5514 13.4713 11.5818 13.5673 11.5818C13.6632 11.5818 13.7576 11.5514 13.8372 11.4882C13.9152 11.4265 16.0435 9.35053 17.2044 7.62325C17.2941 7.48906 17.3027 7.31742 17.2262 7.17543C17.1521 7.03422 17.0039 6.94528 16.8439 6.94528H15.1073C15.1073 6.94528 14.938 3.59761 14.8272 3.44235C14.6665 3.21299 14.0026 3.05695 13.5665 3.05695C13.1288 3.05695 12.4532 3.21299 12.2917 3.44235C12.1817 3.59683 12.0358 6.94528 12.0358 6.94528H10.2766C10.1159 6.94528 9.96841 7.03422 9.89274 7.17543C9.81706 7.31742 9.82564 7.48984 9.91458 7.62325C11.0762 9.35131 13.2201 11.4265 13.2973 11.4882Z" fill="#2E2E2E"/>
</svg>
