<svg width="24" height="24" viewBox="0 0 24 24" fill="none" xmlns="http://www.w3.org/2000/svg">
<path d="M22.0296 10.1597C18.7662 17.0711 17.7044 17.0711 17.071 17.0711H10.8297C8.64371 17.0711 6.96871 15.7854 6.56225 13.7945C6.54977 13.7336 5.314 7.66784 4.99804 5.97332C4.84279 5.14245 4.44803 4.58853 3.02814 4.58853C2.38139 4.58853 1.85791 4.06505 1.85791 3.41829C1.85791 2.77154 2.38139 2.24805 3.02814 2.24805C5.38422 2.24805 6.90084 3.41829 7.29872 5.54345C7.61156 7.22002 8.84343 13.2655 8.85591 13.3271C9.10478 14.5489 10.1993 14.7314 10.8297 14.7314L16.7628 14.7314C17.4002 14.0464 18.8528 11.4072 19.9131 9.16029C20.1892 8.57594 20.8875 8.32707 21.471 8.60169C22.0562 8.87709 22.3058 9.57455 22.0296 10.1597ZM10.0495 17.8513C8.97215 17.8513 8.09916 18.7243 8.09916 19.8017C8.09916 20.8791 8.97215 21.7521 10.0495 21.7521C11.1269 21.7521 11.9999 20.8791 11.9999 19.8017C11.9999 18.7243 11.1269 17.8513 10.0495 17.8513ZM17.071 17.8513C15.9936 17.8513 15.1206 18.7243 15.1206 19.8017C15.1206 20.8791 15.9936 21.7521 17.071 21.7521C18.1483 21.7521 19.0213 20.8791 19.0213 19.8017C19.0213 18.7243 18.1483 17.8513 17.071 17.8513ZM13.2973 11.4883C13.3754 11.5515 13.4713 11.5819 13.5673 11.5819C13.6632 11.5819 13.7576 11.5515 13.8372 11.4883C13.9152 11.4267 16.0435 9.35065 17.2044 7.62337C17.2941 7.48918 17.3027 7.31754 17.2262 7.17555C17.1521 7.03434 17.0039 6.94541 16.8439 6.94541H15.1073C15.1073 6.94541 14.938 3.59773 14.8272 3.44248C14.6665 3.21311 14.0026 3.05708 13.5665 3.05708C13.1288 3.05708 12.4532 3.21311 12.2917 3.44248C12.1817 3.59695 12.0358 6.94541 12.0358 6.94541H10.2766C10.1159 6.94541 9.96841 7.03434 9.89274 7.17555C9.81706 7.31754 9.82564 7.48996 9.91458 7.62337C11.0762 9.35143 13.2201 11.4267 13.2973 11.4883Z" fill="#1A1A1A"/>
</svg>
