<svg width="25" height="24" viewBox="0 0 25 24" fill="none" xmlns="http://www.w3.org/2000/svg">
<path d="M20.5878 8.03656C20.8271 8.03656 21.0441 8.14096 21.2157 8.31736C21.3756 8.50576 21.4561 8.73975 21.4328 8.98695C21.4328 9.06855 20.7932 17.1565 20.4279 20.5608C20.1992 22.65 18.8524 23.9184 16.8322 23.9532C15.2788 23.988 13.7605 24 12.2655 24C10.6783 24 9.12609 23.988 7.61941 23.9532C5.66692 23.9064 4.31896 22.6152 4.10188 20.5608C3.72609 17.1445 3.09821 9.06855 3.08654 8.98695C3.07487 8.73975 3.15423 8.50576 3.31528 8.31736C3.474 8.14096 3.70275 8.03656 3.94316 8.03656H20.5878ZM14.7386 0C15.7995 0 16.7471 0.740393 17.0214 1.79638L17.2175 2.67237C17.3762 3.38637 17.9947 3.89156 18.7066 3.89156H22.2055C22.6723 3.89156 23.0609 4.27916 23.0609 4.77235V5.22835C23.0609 5.70954 22.6723 6.10914 22.2055 6.10914H2.31756C1.84957 6.10914 1.46094 5.70954 1.46094 5.22835V4.77235C1.46094 4.27916 1.84957 3.89156 2.31756 3.89156H5.81642C6.52716 3.89156 7.1457 3.38637 7.30559 2.67357L7.48882 1.85518C7.77358 0.740393 8.71073 0 9.78326 0H14.7386Z" fill="#2E2E2E"/>
</svg>
