<svg width="24" height="24" viewBox="0 0 24 24" fill="none" xmlns="http://www.w3.org/2000/svg">
<path d="M20.8775 19.7258C21.4965 19.7258 22 20.2359 22 20.8629C22 21.4912 21.4965 22 20.8775 22H14.533C13.914 22 13.4105 21.4912 13.4105 20.8629C13.4105 20.2359 13.914 19.7258 14.533 19.7258H20.8775ZM16.4776 2.77674L18.1165 4.07865C18.7886 4.60419 19.2366 5.29695 19.3899 6.02554C19.5668 6.827 19.3781 7.61412 18.8475 8.29493L9.08489 20.9199C8.63684 21.4932 7.97657 21.8157 7.26913 21.8276L3.37822 21.8754C3.16599 21.8754 2.98913 21.7321 2.94196 21.529L2.05766 17.695C1.90439 16.9903 2.05766 16.2617 2.50571 15.7003L9.42682 6.74219C9.54472 6.59886 9.75695 6.57617 9.89844 6.68247L12.8107 8.99964C12.9994 9.15491 13.2588 9.23852 13.53 9.20269C14.1077 9.13102 14.4968 8.60548 14.4378 8.0441C14.4025 7.75745 14.261 7.51856 14.0723 7.3394C14.0134 7.29162 11.2426 5.07001 11.2426 5.07001C11.0657 4.92668 11.0303 4.66391 11.1718 4.48594L12.2684 3.0634C13.2824 1.76149 15.051 1.64204 16.4776 2.77674Z" fill="#2E2E2E"/>
</svg>
