<svg width="930" height="837" viewBox="0 0 930 837" fill="none" xmlns="http://www.w3.org/2000/svg">
            <path d="M500 246C500 356.181 422.181 497 312 497C201.819 497 0 360.681 0 250.5C0 140.319 133.319 0 243.5 0C353.681 0 500 135.819 500 246Z" fill="url(#paint0_linear_1139:21360)"/>
            <path d="M929.5 581C929.5 691.181 850.681 837 740.5 837C630.319 837 512 777.681 512 667.5C512 557.319 601.319 468 711.5 468C821.681 468 929.5 470.819 929.5 581Z" fill="url(#paint1_linear_1139:21360)"/>
            <g filter="url(#filter0_d_1139:21360)">
            <rect x="35" y="65" width="814" height="644" rx="70" fill="#F7F7F7"/>
            <rect x="36" y="66" width="812" height="642" rx="69" stroke="#EDEDED" stroke-width="2"/>
            </g>
            <path d="M112.573 162.404L134.719 174.964L112.707 192.038L112.573 162.404Z" fill="#EFDD9E" stroke="white" stroke-width="0.25" stroke-miterlimit="10"/>
            <path d="M240.77 162.404L185.203 186.657L134.719 174.964L112.573 162.404H240.77Z" fill="#FAF6C4" stroke="white" stroke-width="0.25" stroke-miterlimit="10"/>
            <path d="M112.707 192.038H176.477L185.203 186.657L134.719 174.964L112.707 192.038Z" fill="#BEA771" stroke="white" stroke-width="0.25" stroke-miterlimit="10"/>
            <path d="M114.267 288.499L158.718 260.516L185.203 186.657L176.477 192.038L114.267 288.499Z" fill="#E1C579" stroke="white" stroke-width="0.25" stroke-miterlimit="10"/>
            <path d="M243.513 288.499L222.268 273.627L158.718 260.516L114.267 288.499H243.513Z" fill="#BEA771" stroke="white" stroke-width="0.25" stroke-miterlimit="10"/>
            <path d="M178.536 258.865L158.718 260.516L222.268 273.627L243.39 258.865H178.536Z" fill="#FAF6C4" stroke="white" stroke-width="0.25" stroke-miterlimit="10"/>
            <path d="M243.512 288.499L243.391 258.865L222.268 273.627L243.512 288.499Z" fill="#EFDD9E" stroke="white" stroke-width="0.25" stroke-miterlimit="10"/>
            <path d="M158.718 260.516L240.77 162.404L178.536 258.865L158.718 260.516Z" fill="#E1C579" stroke="white" stroke-width="0.25" stroke-miterlimit="10"/>
            <path d="M185.203 186.657L240.77 162.404L158.718 260.516L185.203 186.657Z" fill="#EFDD9E" stroke="white" stroke-width="0.25" stroke-miterlimit="10"/>
            <path d="M689.167 454.198C689.167 454.198 696.601 564.858 629.721 564.858C562.841 564.858 568.228 454.198 568.228 454.198C568.228 454.198 564.99 388.373 632 388.373C694.373 388.373 689.167 454.198 689.167 454.198Z" stroke="#363636" stroke-width="1.1434" stroke-miterlimit="10"/>
            <path d="M689.167 476.019C689.167 476.019 695.435 466.974 702.843 471.354C710.277 475.734 707.92 491.957 702.843 500.069C697.766 508.18 689.607 512.171 685.074 505.951" stroke="#363636" stroke-width="1.1434" stroke-miterlimit="10"/>
            <path d="M702.04 481.513C702.04 481.513 693.674 478.714 687.742 491.05" stroke="#363636" stroke-width="0.5717" stroke-miterlimit="10" stroke-linecap="round" stroke-linejoin="round"/>
            <path d="M691.783 485.012C691.783 485.012 700.901 489.884 694.866 497.218" stroke="#363636" stroke-width="0.5717" stroke-miterlimit="10" stroke-linecap="round" stroke-linejoin="round"/>
            <path d="M568.695 476.019C568.695 476.019 562.426 466.974 555.018 471.354C547.584 475.734 549.941 491.957 555.018 500.069C560.095 508.18 568.254 512.171 572.787 505.951" stroke="#363636" stroke-width="1.1434" stroke-miterlimit="10"/>
            <path d="M555.821 481.513C555.821 481.513 564.188 478.714 570.119 491.05" stroke="#363636" stroke-width="0.5717" stroke-miterlimit="10" stroke-linecap="round" stroke-linejoin="round"/>
            <path d="M566.053 485.012C566.053 485.012 556.935 489.884 562.97 497.218" stroke="#363636" stroke-width="0.5717" stroke-miterlimit="10" stroke-linecap="round" stroke-linejoin="round"/>
            <path d="M625.81 473.946V497.14C625.81 497.866 625.939 498.566 626.198 499.188C627.182 501.675 630.058 502.868 632.648 502.194L638.217 500.717" stroke="#363636" stroke-width="1.0824" stroke-miterlimit="10" stroke-linecap="round" stroke-linejoin="round"/>
            <path d="M620.448 437.146C619.955 437.871 617.054 447.071 617.054 447.071H585.117L595.97 440.929C598.715 439.556 601.694 438.726 604.777 438.467L620.448 437.146Z" fill="#363636"/>
            <path d="M640.6 437.146C641.092 437.871 643.993 447.071 643.993 447.071H675.93L665.077 440.929C662.332 439.556 659.353 438.726 656.271 438.467L640.6 437.146Z" fill="#363636"/>
            <path d="M604.414 474.438C607.476 474.438 609.957 471.955 609.957 468.892C609.957 465.829 607.476 463.346 604.414 463.346C601.353 463.346 598.871 465.829 598.871 468.892C598.871 471.955 601.353 474.438 604.414 474.438Z" fill="#363636"/>
            <path d="M661.633 468.892C661.633 471.95 659.146 474.438 656.089 474.438C653.033 474.438 650.546 471.95 650.546 468.892C650.546 465.834 653.033 463.346 656.089 463.346C659.146 463.346 661.633 465.834 661.633 468.892Z" fill="#363636"/>
            <path d="M614.464 474.438L600.684 483.56" stroke="#363636" stroke-width="0.5717" stroke-miterlimit="10" stroke-linecap="round" stroke-linejoin="round"/>
            <path d="M647.36 475.449L659.56 484.649" stroke="#363636" stroke-width="0.5717" stroke-miterlimit="10" stroke-linecap="round" stroke-linejoin="round"/>
            <path d="M611.485 513.597C611.485 513.597 620.603 519.972 631.637 519.972C642.672 519.972 650.313 513.597 650.313 513.597" stroke="#363636" stroke-width="1.0824" stroke-miterlimit="10" stroke-linecap="round" stroke-linejoin="round"/>
            <path d="M598.948 493.616C611.795 493.616 622.209 483.196 622.209 470.343C622.209 457.491 611.795 447.071 598.948 447.071C586.102 447.071 575.688 457.491 575.688 470.343C575.688 483.196 586.102 493.616 598.948 493.616Z" stroke="#363636" stroke-width="0.5354" stroke-miterlimit="10" stroke-linecap="round" stroke-linejoin="round"/>
            <path d="M656.089 493.616C668.936 493.616 679.35 483.196 679.35 470.343C679.35 457.491 668.936 447.071 656.089 447.071C643.243 447.071 632.829 457.491 632.829 470.343C632.829 483.196 643.243 493.616 656.089 493.616Z" stroke="#363636" stroke-width="0.5354" stroke-miterlimit="10" stroke-linecap="round" stroke-linejoin="round"/>
            <path d="M622.209 470.344C622.209 470.344 627.726 465.212 632.829 470.344" stroke="#363636" stroke-width="0.5354" stroke-miterlimit="10" stroke-linecap="round" stroke-linejoin="round"/>
            <path d="M576.569 476.615L568.384 470.162" stroke="#363636" stroke-width="0.5354" stroke-miterlimit="10" stroke-linecap="round" stroke-linejoin="round"/>
            <path d="M678.521 476.615L689.426 468.037" stroke="#363636" stroke-width="0.5354" stroke-miterlimit="10" stroke-linecap="round" stroke-linejoin="round"/>
            <path d="M628.685 375C547.221 375 555.458 430.459 567.84 474.438C567.84 474.438 578.874 453.939 576.672 439.452C622.934 434.217 664.43 408.69 664.637 408.561C667.823 433.854 689.711 471.38 689.711 471.38C702.04 430.459 714.836 375 628.685 375Z" fill="#363636"/>
            <path d="M785.524 707.497C785.524 649.575 718.566 615.678 718.566 615.678H638.217H625.809H545.434C545.434 615.678 478.477 649.575 478.477 707.497" stroke="#363636" stroke-width="1.1434" stroke-miterlimit="10" stroke-linecap="round" stroke-linejoin="round"/>
            <path d="M764.051 652.634H499.95L514.429 637.603H749.571L764.051 652.634Z" fill="#363636"/>
            <path d="M782.908 687.93H480.549L487.542 672.899H775.81L782.908 687.93Z" fill="#363636"/>
            <path d="M588.872 545.732V592.25C588.872 592.25 578.874 609.873 545.434 615.678H716.26C716.26 615.678 673.418 606.763 670.31 592.25V545.732" stroke="#363636" stroke-width="1.1434" stroke-miterlimit="10" stroke-linecap="round" stroke-linejoin="round"/>
            <path d="M589.779 547.002C589.779 547.002 601.798 570.87 621.25 581.962C635.367 590.022 653.628 586.886 663.212 573.747C668.004 567.19 671.63 557.549 671.63 543.374C671.63 543.374 656.063 563.899 632.855 564.858C609.62 565.816 589.779 547.002 589.779 547.002Z" fill="#363636"/>
            <path d="M802 709C802 742.137 775.137 769 742 769C708.863 769 692.5 726.137 692.5 693C692.5 659.863 739.363 643 772.5 643C805.637 643 802 675.863 802 709Z" fill="#E1C579"/>
            <circle cx="138.5" cy="707.5" r="19.5" fill="#A171C8"/>
            <path d="M865.5 96.5C865.5 114.725 824.725 142.5 806.5 142.5C788.275 142.5 764 95.7254 764 77.5C764 59.2746 804.775 39 823 39C841.225 39 865.5 78.2746 865.5 96.5Z" fill="#D7795F"/>
            <path d="M120.496 465.76H112.144V461.8H133.528V465.76H125.176V487H120.496V465.76ZM147.606 467.56C150.03 467.56 151.974 468.268 153.438 469.684C154.902 471.1 155.634 473.2 155.634 475.984V487H151.134V476.56C151.134 474.88 150.738 473.62 149.946 472.78C149.154 471.916 148.026 471.484 146.562 471.484C144.906 471.484 143.598 471.988 142.638 472.996C141.678 473.98 141.198 475.408 141.198 477.28V487H136.698V460.288H141.198V470.008C141.942 469.216 142.854 468.616 143.934 468.208C145.038 467.776 146.262 467.56 147.606 467.56ZM179.681 477.496C179.681 477.808 179.657 478.252 179.609 478.828H164.525C164.789 480.244 165.473 481.372 166.577 482.212C167.705 483.028 169.097 483.436 170.753 483.436C172.865 483.436 174.605 482.74 175.973 481.348L178.385 484.12C177.521 485.152 176.429 485.932 175.109 486.46C173.789 486.988 172.301 487.252 170.645 487.252C168.533 487.252 166.673 486.832 165.065 485.992C163.457 485.152 162.209 483.988 161.321 482.5C160.457 480.988 160.025 479.284 160.025 477.388C160.025 475.516 160.445 473.836 161.285 472.348C162.149 470.836 163.337 469.66 164.849 468.82C166.361 467.98 168.065 467.56 169.961 467.56C171.833 467.56 173.501 467.98 174.965 468.82C176.453 469.636 177.605 470.8 178.421 472.312C179.261 473.8 179.681 475.528 179.681 477.496ZM169.961 471.16C168.521 471.16 167.297 471.592 166.289 472.456C165.305 473.296 164.705 474.424 164.489 475.84H175.397C175.205 474.448 174.617 473.32 173.633 472.456C172.649 471.592 171.425 471.16 169.961 471.16ZM204.788 467.56C206.66 467.56 208.328 467.968 209.792 468.784C211.28 469.6 212.444 470.752 213.284 472.24C214.124 473.728 214.544 475.444 214.544 477.388C214.544 479.332 214.124 481.06 213.284 482.572C212.444 484.06 211.28 485.212 209.792 486.028C208.328 486.844 206.66 487.252 204.788 487.252C203.468 487.252 202.256 487.024 201.152 486.568C200.072 486.112 199.16 485.428 198.416 484.516V487H194.132V460.288H198.632V470.116C199.4 469.276 200.3 468.64 201.332 468.208C202.388 467.776 203.54 467.56 204.788 467.56ZM204.284 483.4C205.94 483.4 207.296 482.848 208.352 481.744C209.432 480.64 209.972 479.188 209.972 477.388C209.972 475.588 209.432 474.136 208.352 473.032C207.296 471.928 205.94 471.376 204.284 471.376C203.204 471.376 202.232 471.628 201.368 472.132C200.504 472.612 199.82 473.308 199.316 474.22C198.812 475.132 198.56 476.188 198.56 477.388C198.56 478.588 198.812 479.644 199.316 480.556C199.82 481.468 200.504 482.176 201.368 482.68C202.232 483.16 203.204 483.4 204.284 483.4ZM236.974 477.496C236.974 477.808 236.95 478.252 236.902 478.828H221.818C222.082 480.244 222.766 481.372 223.87 482.212C224.998 483.028 226.39 483.436 228.046 483.436C230.158 483.436 231.898 482.74 233.266 481.348L235.678 484.12C234.814 485.152 233.722 485.932 232.402 486.46C231.082 486.988 229.594 487.252 227.938 487.252C225.826 487.252 223.966 486.832 222.358 485.992C220.75 485.152 219.502 483.988 218.614 482.5C217.75 480.988 217.318 479.284 217.318 477.388C217.318 475.516 217.738 473.836 218.578 472.348C219.442 470.836 220.63 469.66 222.142 468.82C223.654 467.98 225.358 467.56 227.254 467.56C229.126 467.56 230.794 467.98 232.258 468.82C233.746 469.636 234.898 470.8 235.714 472.312C236.554 473.8 236.974 475.528 236.974 477.496ZM227.254 471.16C225.814 471.16 224.59 471.592 223.582 472.456C222.598 473.296 221.998 474.424 221.782 475.84H232.69C232.498 474.448 231.91 473.32 230.926 472.456C229.942 471.592 228.718 471.16 227.254 471.16ZM247.327 487.252C245.767 487.252 244.243 487.048 242.755 486.64C241.267 486.232 240.079 485.716 239.191 485.092L240.919 481.672C241.783 482.248 242.815 482.716 244.015 483.076C245.239 483.412 246.439 483.58 247.615 483.58C250.303 483.58 251.647 482.872 251.647 481.456C251.647 480.784 251.299 480.316 250.603 480.052C249.931 479.788 248.839 479.536 247.327 479.296C245.743 479.056 244.447 478.78 243.439 478.468C242.455 478.156 241.591 477.616 240.847 476.848C240.127 476.056 239.767 474.964 239.767 473.572C239.767 471.748 240.523 470.296 242.035 469.216C243.571 468.112 245.635 467.56 248.227 467.56C249.547 467.56 250.867 467.716 252.187 468.028C253.507 468.316 254.587 468.712 255.427 469.216L253.699 472.636C252.067 471.676 250.231 471.196 248.191 471.196C246.871 471.196 245.863 471.4 245.167 471.808C244.495 472.192 244.159 472.708 244.159 473.356C244.159 474.076 244.519 474.592 245.239 474.904C245.983 475.192 247.123 475.468 248.659 475.732C250.195 475.972 251.455 476.248 252.439 476.56C253.423 476.872 254.263 477.4 254.959 478.144C255.679 478.888 256.039 479.944 256.039 481.312C256.039 483.112 255.259 484.552 253.699 485.632C252.139 486.712 250.015 487.252 247.327 487.252ZM271.56 485.956C271.032 486.388 270.384 486.712 269.616 486.928C268.872 487.144 268.08 487.252 267.24 487.252C265.128 487.252 263.496 486.7 262.344 485.596C261.192 484.492 260.616 482.884 260.616 480.772V471.52H257.448V467.92H260.616V463.528H265.116V467.92H270.264V471.52H265.116V480.664C265.116 481.6 265.344 482.32 265.8 482.824C266.256 483.304 266.916 483.544 267.78 483.544C268.788 483.544 269.628 483.28 270.3 482.752L271.56 485.956ZM315.379 467.776L308.287 487H303.967L298.999 473.752L293.959 487H289.639L282.583 467.776H286.831L291.907 481.96L297.199 467.776H300.979L306.163 482.032L311.383 467.776H315.379ZM325.309 467.56C328.141 467.56 330.301 468.244 331.789 469.612C333.301 470.956 334.057 472.996 334.057 475.732V487H329.809V484.66C329.257 485.5 328.465 486.148 327.433 486.604C326.425 487.036 325.201 487.252 323.761 487.252C322.321 487.252 321.061 487.012 319.981 486.532C318.901 486.028 318.061 485.344 317.461 484.48C316.885 483.592 316.597 482.596 316.597 481.492C316.597 479.764 317.233 478.384 318.505 477.352C319.801 476.296 321.829 475.768 324.589 475.768H329.557V475.48C329.557 474.136 329.149 473.104 328.333 472.384C327.541 471.664 326.353 471.304 324.769 471.304C323.689 471.304 322.621 471.472 321.565 471.808C320.533 472.144 319.657 472.612 318.937 473.212L317.173 469.936C318.181 469.168 319.393 468.58 320.809 468.172C322.225 467.764 323.725 467.56 325.309 467.56ZM324.697 483.976C325.825 483.976 326.821 483.724 327.685 483.22C328.573 482.692 329.197 481.948 329.557 480.988V478.756H324.913C322.321 478.756 321.025 479.608 321.025 481.312C321.025 482.128 321.349 482.776 321.997 483.256C322.645 483.736 323.545 483.976 324.697 483.976ZM357.571 467.776L348.571 488.548C347.731 490.636 346.711 492.1 345.511 492.94C344.311 493.804 342.859 494.236 341.155 494.236C340.195 494.236 339.247 494.08 338.311 493.768C337.375 493.456 336.607 493.024 336.007 492.472L337.807 489.16C338.239 489.568 338.743 489.892 339.319 490.132C339.919 490.372 340.519 490.492 341.119 490.492C341.911 490.492 342.559 490.288 343.063 489.88C343.591 489.472 344.071 488.788 344.503 487.828L344.827 487.072L336.439 467.776H341.119L347.167 481.996L353.251 467.776H357.571ZM382.069 485.956C381.541 486.388 380.893 486.712 380.125 486.928C379.381 487.144 378.589 487.252 377.749 487.252C375.637 487.252 374.005 486.7 372.853 485.596C371.701 484.492 371.125 482.884 371.125 480.772V471.52H367.957V467.92H371.125V463.528H375.625V467.92H380.773V471.52H375.625V480.664C375.625 481.6 375.853 482.32 376.309 482.824C376.765 483.304 377.425 483.544 378.289 483.544C379.297 483.544 380.137 483.28 380.809 482.752L382.069 485.956ZM393.868 487.252C391.924 487.252 390.172 486.832 388.612 485.992C387.052 485.152 385.828 483.988 384.94 482.5C384.076 480.988 383.644 479.284 383.644 477.388C383.644 475.492 384.076 473.8 384.94 472.312C385.828 470.824 387.052 469.66 388.612 468.82C390.172 467.98 391.924 467.56 393.868 467.56C395.836 467.56 397.6 467.98 399.16 468.82C400.72 469.66 401.932 470.824 402.796 472.312C403.684 473.8 404.128 475.492 404.128 477.388C404.128 479.284 403.684 480.988 402.796 482.5C401.932 483.988 400.72 485.152 399.16 485.992C397.6 486.832 395.836 487.252 393.868 487.252ZM393.868 483.4C395.524 483.4 396.892 482.848 397.972 481.744C399.052 480.64 399.592 479.188 399.592 477.388C399.592 475.588 399.052 474.136 397.972 473.032C396.892 471.928 395.524 471.376 393.868 471.376C392.212 471.376 390.844 471.928 389.764 473.032C388.708 474.136 388.18 475.588 388.18 477.388C388.18 479.188 388.708 480.64 389.764 481.744C390.844 482.848 392.212 483.4 393.868 483.4ZM119.236 514.584C120.532 512.568 122.812 511.56 126.076 511.56V515.844C125.692 515.772 125.344 515.736 125.032 515.736C123.28 515.736 121.912 516.252 120.928 517.284C119.944 518.292 119.452 519.756 119.452 521.676V531H114.952V511.776H119.236V514.584ZM148.771 511.776V531H144.487V528.552C143.767 529.416 142.867 530.088 141.787 530.568C140.707 531.024 139.543 531.252 138.295 531.252C135.727 531.252 133.699 530.544 132.211 529.128C130.747 527.688 130.015 525.564 130.015 522.756V511.776H134.515V522.144C134.515 523.872 134.899 525.168 135.667 526.032C136.459 526.872 137.575 527.292 139.015 527.292C140.623 527.292 141.895 526.8 142.831 525.816C143.791 524.808 144.271 523.368 144.271 521.496V511.776H148.771ZM165.661 511.56C168.085 511.56 170.029 512.268 171.493 513.684C172.957 515.1 173.689 517.2 173.689 519.984V531H169.189V520.56C169.189 518.88 168.793 517.62 168.001 516.78C167.209 515.916 166.081 515.484 164.617 515.484C162.961 515.484 161.653 515.988 160.693 516.996C159.733 517.98 159.253 519.408 159.253 521.28V531H154.753V511.776H159.037V514.26C159.781 513.372 160.717 512.7 161.845 512.244C162.973 511.788 164.245 511.56 165.661 511.56ZM207.527 511.776L198.527 532.548C197.687 534.636 196.667 536.1 195.467 536.94C194.267 537.804 192.815 538.236 191.111 538.236C190.151 538.236 189.203 538.08 188.267 537.768C187.331 537.456 186.563 537.024 185.963 536.472L187.763 533.16C188.195 533.568 188.699 533.892 189.275 534.132C189.875 534.372 190.475 534.492 191.075 534.492C191.867 534.492 192.515 534.288 193.019 533.88C193.547 533.472 194.027 532.788 194.459 531.828L194.783 531.072L186.395 511.776H191.075L197.123 525.996L203.207 511.776H207.527ZM218.542 531.252C216.598 531.252 214.846 530.832 213.286 529.992C211.726 529.152 210.502 527.988 209.614 526.5C208.75 524.988 208.318 523.284 208.318 521.388C208.318 519.492 208.75 517.8 209.614 516.312C210.502 514.824 211.726 513.66 213.286 512.82C214.846 511.98 216.598 511.56 218.542 511.56C220.51 511.56 222.274 511.98 223.834 512.82C225.394 513.66 226.606 514.824 227.47 516.312C228.358 517.8 228.802 519.492 228.802 521.388C228.802 523.284 228.358 524.988 227.47 526.5C226.606 527.988 225.394 529.152 223.834 529.992C222.274 530.832 220.51 531.252 218.542 531.252ZM218.542 527.4C220.198 527.4 221.566 526.848 222.646 525.744C223.726 524.64 224.266 523.188 224.266 521.388C224.266 519.588 223.726 518.136 222.646 517.032C221.566 515.928 220.198 515.376 218.542 515.376C216.886 515.376 215.518 515.928 214.438 517.032C213.382 518.136 212.854 519.588 212.854 521.388C212.854 523.188 213.382 524.64 214.438 525.744C215.518 526.848 216.886 527.4 218.542 527.4ZM251.807 511.776V531H247.523V528.552C246.803 529.416 245.903 530.088 244.823 530.568C243.743 531.024 242.579 531.252 241.331 531.252C238.763 531.252 236.735 530.544 235.247 529.128C233.783 527.688 233.051 525.564 233.051 522.756V511.776H237.551V522.144C237.551 523.872 237.935 525.168 238.703 526.032C239.495 526.872 240.611 527.292 242.051 527.292C243.659 527.292 244.931 526.8 245.867 525.816C246.827 524.808 247.307 523.368 247.307 521.496V511.776H251.807ZM262.073 514.584C263.369 512.568 265.649 511.56 268.913 511.56V515.844C268.529 515.772 268.181 515.736 267.869 515.736C266.117 515.736 264.749 516.252 263.765 517.284C262.781 518.292 262.289 519.756 262.289 521.676V531H257.789V511.776H262.073V514.584ZM293.691 511.56C295.563 511.56 297.231 511.968 298.695 512.784C300.183 513.6 301.347 514.752 302.187 516.24C303.027 517.728 303.447 519.444 303.447 521.388C303.447 523.332 303.027 525.06 302.187 526.572C301.347 528.06 300.183 529.212 298.695 530.028C297.231 530.844 295.563 531.252 293.691 531.252C292.371 531.252 291.159 531.024 290.055 530.568C288.975 530.112 288.063 529.428 287.319 528.516V531H283.035V504.288H287.535V514.116C288.303 513.276 289.203 512.64 290.235 512.208C291.291 511.776 292.443 511.56 293.691 511.56ZM293.187 527.4C294.843 527.4 296.199 526.848 297.255 525.744C298.335 524.64 298.875 523.188 298.875 521.388C298.875 519.588 298.335 518.136 297.255 517.032C296.199 515.928 294.843 515.376 293.187 515.376C292.107 515.376 291.135 515.628 290.271 516.132C289.407 516.612 288.723 517.308 288.219 518.22C287.715 519.132 287.463 520.188 287.463 521.388C287.463 522.588 287.715 523.644 288.219 524.556C288.723 525.468 289.407 526.176 290.271 526.68C291.135 527.16 292.107 527.4 293.187 527.4ZM326.417 511.776V531H322.133V528.552C321.413 529.416 320.513 530.088 319.433 530.568C318.353 531.024 317.189 531.252 315.941 531.252C313.373 531.252 311.345 530.544 309.857 529.128C308.393 527.688 307.661 525.564 307.661 522.756V511.776H312.161V522.144C312.161 523.872 312.545 525.168 313.313 526.032C314.105 526.872 315.221 527.292 316.661 527.292C318.269 527.292 319.541 526.8 320.477 525.816C321.437 524.808 321.917 523.368 321.917 521.496V511.776H326.417ZM338.339 531.252C336.779 531.252 335.255 531.048 333.767 530.64C332.279 530.232 331.091 529.716 330.203 529.092L331.931 525.672C332.795 526.248 333.827 526.716 335.027 527.076C336.251 527.412 337.451 527.58 338.627 527.58C341.315 527.58 342.659 526.872 342.659 525.456C342.659 524.784 342.311 524.316 341.615 524.052C340.943 523.788 339.851 523.536 338.339 523.296C336.755 523.056 335.459 522.78 334.451 522.468C333.467 522.156 332.603 521.616 331.859 520.848C331.139 520.056 330.779 518.964 330.779 517.572C330.779 515.748 331.535 514.296 333.047 513.216C334.583 512.112 336.647 511.56 339.239 511.56C340.559 511.56 341.879 511.716 343.199 512.028C344.519 512.316 345.599 512.712 346.439 513.216L344.711 516.636C343.079 515.676 341.243 515.196 339.203 515.196C337.883 515.196 336.875 515.4 336.179 515.808C335.507 516.192 335.171 516.708 335.171 517.356C335.171 518.076 335.531 518.592 336.251 518.904C336.995 519.192 338.135 519.468 339.671 519.732C341.207 519.972 342.467 520.248 343.451 520.56C344.435 520.872 345.275 521.4 345.971 522.144C346.691 522.888 347.051 523.944 347.051 525.312C347.051 527.112 346.271 528.552 344.711 529.632C343.151 530.712 341.027 531.252 338.339 531.252ZM351.016 511.776H355.516V531H351.016V511.776ZM353.284 508.608C352.468 508.608 351.784 508.356 351.232 507.852C350.68 507.324 350.404 506.676 350.404 505.908C350.404 505.14 350.68 504.504 351.232 504C351.784 503.472 352.468 503.208 353.284 503.208C354.1 503.208 354.784 503.46 355.336 503.964C355.888 504.444 356.164 505.056 356.164 505.8C356.164 506.592 355.888 507.264 355.336 507.816C354.808 508.344 354.124 508.608 353.284 508.608ZM372.421 511.56C374.845 511.56 376.789 512.268 378.253 513.684C379.717 515.1 380.449 517.2 380.449 519.984V531H375.949V520.56C375.949 518.88 375.553 517.62 374.761 516.78C373.969 515.916 372.841 515.484 371.377 515.484C369.721 515.484 368.413 515.988 367.453 516.996C366.493 517.98 366.013 519.408 366.013 521.28V531H361.513V511.776H365.797V514.26C366.541 513.372 367.477 512.7 368.605 512.244C369.733 511.788 371.005 511.56 372.421 511.56ZM404.495 521.496C404.495 521.808 404.471 522.252 404.423 522.828H389.339C389.603 524.244 390.287 525.372 391.391 526.212C392.519 527.028 393.911 527.436 395.567 527.436C397.679 527.436 399.419 526.74 400.787 525.348L403.199 528.12C402.335 529.152 401.243 529.932 399.923 530.46C398.603 530.988 397.115 531.252 395.459 531.252C393.347 531.252 391.487 530.832 389.879 529.992C388.271 529.152 387.023 527.988 386.135 526.5C385.271 524.988 384.839 523.284 384.839 521.388C384.839 519.516 385.259 517.836 386.099 516.348C386.963 514.836 388.151 513.66 389.663 512.82C391.175 511.98 392.879 511.56 394.775 511.56C396.647 511.56 398.315 511.98 399.779 512.82C401.267 513.636 402.419 514.8 403.235 516.312C404.075 517.8 404.495 519.528 404.495 521.496ZM394.775 515.16C393.335 515.16 392.111 515.592 391.103 516.456C390.119 517.296 389.519 518.424 389.303 519.84H400.211C400.019 518.448 399.431 517.32 398.447 516.456C397.463 515.592 396.239 515.16 394.775 515.16ZM414.847 531.252C413.287 531.252 411.763 531.048 410.275 530.64C408.787 530.232 407.599 529.716 406.711 529.092L408.439 525.672C409.303 526.248 410.335 526.716 411.535 527.076C412.759 527.412 413.959 527.58 415.135 527.58C417.823 527.58 419.167 526.872 419.167 525.456C419.167 524.784 418.819 524.316 418.123 524.052C417.451 523.788 416.359 523.536 414.847 523.296C413.263 523.056 411.967 522.78 410.959 522.468C409.975 522.156 409.111 521.616 408.367 520.848C407.647 520.056 407.287 518.964 407.287 517.572C407.287 515.748 408.043 514.296 409.555 513.216C411.091 512.112 413.155 511.56 415.747 511.56C417.067 511.56 418.387 511.716 419.707 512.028C421.027 512.316 422.107 512.712 422.947 513.216L421.219 516.636C419.587 515.676 417.751 515.196 415.711 515.196C414.391 515.196 413.383 515.4 412.687 515.808C412.015 516.192 411.679 516.708 411.679 517.356C411.679 518.076 412.039 518.592 412.759 518.904C413.503 519.192 414.643 519.468 416.179 519.732C417.715 519.972 418.975 520.248 419.959 520.56C420.943 520.872 421.783 521.4 422.479 522.144C423.199 522.888 423.559 523.944 423.559 525.312C423.559 527.112 422.779 528.552 421.219 529.632C419.659 530.712 417.535 531.252 414.847 531.252ZM433.465 531.252C431.905 531.252 430.381 531.048 428.893 530.64C427.405 530.232 426.217 529.716 425.329 529.092L427.057 525.672C427.921 526.248 428.953 526.716 430.153 527.076C431.377 527.412 432.577 527.58 433.753 527.58C436.441 527.58 437.785 526.872 437.785 525.456C437.785 524.784 437.437 524.316 436.741 524.052C436.069 523.788 434.977 523.536 433.465 523.296C431.881 523.056 430.585 522.78 429.577 522.468C428.593 522.156 427.729 521.616 426.985 520.848C426.265 520.056 425.905 518.964 425.905 517.572C425.905 515.748 426.661 514.296 428.173 513.216C429.709 512.112 431.773 511.56 434.365 511.56C435.685 511.56 437.005 511.716 438.325 512.028C439.645 512.316 440.725 512.712 441.565 513.216L439.837 516.636C438.205 515.676 436.369 515.196 434.329 515.196C433.009 515.196 432.001 515.4 431.305 515.808C430.633 516.192 430.297 516.708 430.297 517.356C430.297 518.076 430.657 518.592 431.377 518.904C432.121 519.192 433.261 519.468 434.797 519.732C436.333 519.972 437.593 520.248 438.577 520.56C439.561 520.872 440.401 521.4 441.097 522.144C441.817 522.888 442.177 523.944 442.177 525.312C442.177 527.112 441.397 528.552 439.837 529.632C438.277 530.712 436.153 531.252 433.465 531.252ZM447.582 531.252C446.766 531.252 446.07 530.976 445.494 530.424C444.918 529.848 444.63 529.128 444.63 528.264C444.63 527.376 444.906 526.656 445.458 526.104C446.034 525.552 446.742 525.276 447.582 525.276C448.422 525.276 449.118 525.552 449.67 526.104C450.246 526.656 450.534 527.376 450.534 528.264C450.534 529.128 450.246 529.848 449.67 530.424C449.094 530.976 448.398 531.252 447.582 531.252Z" fill="#1A1A1A"/>
            <path d="M323.08 245L323.016 218.12L309.832 240.264H305.16L292.04 218.696V245H282.312V200.2H290.888L307.656 228.04L324.168 200.2H332.68L332.808 245H323.08ZM358.797 245.512C355.17 245.512 351.906 244.765 349.005 243.272C346.146 241.736 343.906 239.624 342.285 236.936C340.664 234.248 339.853 231.197 339.853 227.784C339.853 224.371 340.664 221.32 342.285 218.632C343.906 215.944 346.146 213.853 349.005 212.36C351.906 210.824 355.17 210.056 358.797 210.056C362.424 210.056 365.666 210.824 368.525 212.36C371.384 213.853 373.624 215.944 375.245 218.632C376.866 221.32 377.677 224.371 377.677 227.784C377.677 231.197 376.866 234.248 375.245 236.936C373.624 239.624 371.384 241.736 368.525 243.272C365.666 244.765 362.424 245.512 358.797 245.512ZM358.797 237.32C361.357 237.32 363.448 236.467 365.069 234.76C366.733 233.011 367.565 230.685 367.565 227.784C367.565 224.883 366.733 222.579 365.069 220.872C363.448 219.123 361.357 218.248 358.797 218.248C356.237 218.248 354.125 219.123 352.461 220.872C350.797 222.579 349.965 224.883 349.965 227.784C349.965 230.685 350.797 233.011 352.461 234.76C354.125 236.467 356.237 237.32 358.797 237.32ZM411.945 237.32V245H381.225V238.984L398.761 218.248H381.673V210.568H411.369V216.584L393.833 237.32H411.945ZM452.711 210.568V245H443.239V240.904C441.916 242.397 440.338 243.549 438.503 244.36C436.668 245.128 434.684 245.512 432.551 245.512C428.028 245.512 424.444 244.211 421.799 241.608C419.154 239.005 417.831 235.144 417.831 230.024V210.568H427.815V228.552C427.815 234.099 430.14 236.872 434.791 236.872C437.18 236.872 439.1 236.104 440.551 234.568C442.002 232.989 442.727 230.664 442.727 227.592V210.568H452.711ZM461.641 197.512H471.625V245H461.641V197.512ZM494.458 210.056C499.792 210.056 503.888 211.336 506.746 213.896C509.605 216.413 511.034 220.232 511.034 225.352V245H501.69V240.712C499.813 243.912 496.314 245.512 491.194 245.512C488.549 245.512 486.245 245.064 484.282 244.168C482.362 243.272 480.89 242.035 479.866 240.456C478.842 238.877 478.33 237.085 478.33 235.08C478.33 231.88 479.525 229.363 481.914 227.528C484.346 225.693 488.08 224.776 493.114 224.776H501.05C501.05 222.6 500.389 220.936 499.066 219.784C497.744 218.589 495.76 217.992 493.114 217.992C491.28 217.992 489.466 218.291 487.674 218.888C485.925 219.443 484.432 220.211 483.194 221.192L479.61 214.216C481.488 212.893 483.728 211.869 486.33 211.144C488.976 210.419 491.685 210.056 494.458 210.056ZM493.69 238.792C495.397 238.792 496.912 238.408 498.234 237.64C499.557 236.829 500.496 235.656 501.05 234.12V230.6H494.202C490.106 230.6 488.058 231.944 488.058 234.632C488.058 235.912 488.549 236.936 489.53 237.704C490.554 238.429 491.941 238.792 493.69 238.792ZM529.287 215.112C530.481 213.448 532.081 212.189 534.087 211.336C536.135 210.483 538.481 210.056 541.127 210.056V219.272C540.017 219.187 539.271 219.144 538.887 219.144C536.028 219.144 533.788 219.955 532.167 221.576C530.545 223.155 529.735 225.544 529.735 228.744V245H519.751V210.568H529.287V215.112Z" fill="#363636"/>
            <path opacity="0.5" d="M120.295 593.574C118.265 593.574 116.683 593.007 115.549 591.873C114.415 590.725 113.848 589.087 113.848 586.959V578.664H116.578V586.854C116.578 589.738 117.824 591.18 120.316 591.18C122.794 591.18 124.033 589.738 124.033 586.854V578.664H126.721V586.959C126.721 589.087 126.154 590.725 125.02 591.873C123.9 593.007 122.325 593.574 120.295 593.574ZM137.065 592.755C136.757 593.007 136.379 593.196 135.931 593.322C135.497 593.448 135.035 593.511 134.545 593.511C133.313 593.511 132.361 593.189 131.689 592.545C131.017 591.901 130.681 590.963 130.681 589.731V584.334H128.833V582.234H130.681V579.672H133.306V582.234H136.309V584.334H133.306V589.668C133.306 590.214 133.439 590.634 133.705 590.928C133.971 591.208 134.356 591.348 134.86 591.348C135.448 591.348 135.938 591.194 136.33 590.886L137.065 592.755ZM139.256 582.15H141.881V593.364H139.256V582.15ZM140.579 580.302C140.103 580.302 139.704 580.155 139.382 579.861C139.06 579.553 138.899 579.175 138.899 578.727C138.899 578.279 139.06 577.908 139.382 577.614C139.704 577.306 140.103 577.152 140.579 577.152C141.055 577.152 141.454 577.299 141.776 577.593C142.098 577.873 142.259 578.23 142.259 578.664C142.259 579.126 142.098 579.518 141.776 579.84C141.468 580.148 141.069 580.302 140.579 580.302ZM145.358 577.782H147.983V593.364H145.358V577.782ZM151.459 582.15H154.084V593.364H151.459V582.15ZM152.782 580.302C152.306 580.302 151.907 580.155 151.585 579.861C151.263 579.553 151.102 579.175 151.102 578.727C151.102 578.279 151.263 577.908 151.585 577.614C151.907 577.306 152.306 577.152 152.782 577.152C153.258 577.152 153.657 577.299 153.979 577.593C154.301 577.873 154.462 578.23 154.462 578.664C154.462 579.126 154.301 579.518 153.979 579.84C153.671 580.148 153.272 580.302 152.782 580.302ZM166.318 591.264V593.364H156.637V591.705L162.79 584.25H156.763V582.15H166.15V583.809L159.976 591.264H166.318ZM179.147 587.82C179.147 588.002 179.133 588.261 179.105 588.597H170.306C170.46 589.423 170.859 590.081 171.503 590.571C172.161 591.047 172.973 591.285 173.939 591.285C175.171 591.285 176.186 590.879 176.984 590.067L178.391 591.684C177.887 592.286 177.25 592.741 176.48 593.049C175.71 593.357 174.842 593.511 173.876 593.511C172.644 593.511 171.559 593.266 170.621 592.776C169.683 592.286 168.955 591.607 168.437 590.739C167.933 589.857 167.681 588.863 167.681 587.757C167.681 586.665 167.926 585.685 168.416 584.817C168.92 583.935 169.613 583.249 170.495 582.759C171.377 582.269 172.371 582.024 173.477 582.024C174.569 582.024 175.542 582.269 176.396 582.759C177.264 583.235 177.936 583.914 178.412 584.796C178.902 585.664 179.147 586.672 179.147 587.82ZM173.477 584.124C172.637 584.124 171.923 584.376 171.335 584.88C170.761 585.37 170.411 586.028 170.285 586.854H176.648C176.536 586.042 176.193 585.384 175.619 584.88C175.045 584.376 174.331 584.124 173.477 584.124ZM194.277 592.755C193.969 593.007 193.591 593.196 193.143 593.322C192.709 593.448 192.247 593.511 191.757 593.511C190.525 593.511 189.573 593.189 188.901 592.545C188.229 591.901 187.893 590.963 187.893 589.731V584.334H186.045V582.234H187.893V579.672H190.518V582.234H193.521V584.334H190.518V589.668C190.518 590.214 190.651 590.634 190.917 590.928C191.183 591.208 191.568 591.348 192.072 591.348C192.66 591.348 193.15 591.194 193.542 590.886L194.277 592.755ZM206.64 587.82C206.64 588.002 206.626 588.261 206.598 588.597H197.799C197.953 589.423 198.352 590.081 198.996 590.571C199.654 591.047 200.466 591.285 201.432 591.285C202.664 591.285 203.679 590.879 204.477 590.067L205.884 591.684C205.38 592.286 204.743 592.741 203.973 593.049C203.203 593.357 202.335 593.511 201.369 593.511C200.137 593.511 199.052 593.266 198.114 592.776C197.176 592.286 196.448 591.607 195.93 590.739C195.426 589.857 195.174 588.863 195.174 587.757C195.174 586.665 195.419 585.685 195.909 584.817C196.413 583.935 197.106 583.249 197.988 582.759C198.87 582.269 199.864 582.024 200.97 582.024C202.062 582.024 203.035 582.269 203.889 582.759C204.757 583.235 205.429 583.914 205.905 584.796C206.395 585.664 206.64 586.672 206.64 587.82ZM200.97 584.124C200.13 584.124 199.416 584.376 198.828 584.88C198.254 585.37 197.904 586.028 197.778 586.854H204.141C204.029 586.042 203.686 585.384 203.112 584.88C202.538 584.376 201.824 584.124 200.97 584.124ZM214.338 593.511C213.176 593.511 212.133 593.266 211.209 592.776C210.285 592.286 209.564 591.607 209.046 590.739C208.528 589.857 208.269 588.863 208.269 587.757C208.269 586.651 208.528 585.664 209.046 584.796C209.564 583.928 210.278 583.249 211.188 582.759C212.112 582.269 213.162 582.024 214.338 582.024C215.444 582.024 216.41 582.248 217.236 582.696C218.076 583.144 218.706 583.788 219.126 584.628L217.11 585.804C216.788 585.286 216.382 584.901 215.892 584.649C215.416 584.383 214.891 584.25 214.317 584.25C213.337 584.25 212.525 584.572 211.881 585.216C211.237 585.846 210.915 586.693 210.915 587.757C210.915 588.821 211.23 589.675 211.86 590.319C212.504 590.949 213.323 591.264 214.317 591.264C214.891 591.264 215.416 591.138 215.892 590.886C216.382 590.62 216.788 590.228 217.11 589.71L219.126 590.886C218.692 591.726 218.055 592.377 217.215 592.839C216.389 593.287 215.43 593.511 214.338 593.511ZM227.687 582.024C229.101 582.024 230.235 582.437 231.089 583.263C231.943 584.089 232.37 585.314 232.37 586.938V593.364H229.745V587.274C229.745 586.294 229.514 585.559 229.052 585.069C228.59 584.565 227.932 584.313 227.078 584.313C226.112 584.313 225.349 584.607 224.789 585.195C224.229 585.769 223.949 586.602 223.949 587.694V593.364H221.324V577.782H223.949V583.452C224.383 582.99 224.915 582.64 225.545 582.402C226.189 582.15 226.903 582.024 227.687 582.024ZM242.095 582.024C243.509 582.024 244.643 582.437 245.497 583.263C246.351 584.089 246.778 585.314 246.778 586.938V593.364H244.153V587.274C244.153 586.294 243.922 585.559 243.46 585.069C242.998 584.565 242.34 584.313 241.486 584.313C240.52 584.313 239.757 584.607 239.197 585.195C238.637 585.769 238.357 586.602 238.357 587.694V593.364H235.732V582.15H238.231V583.599C238.665 583.081 239.211 582.689 239.869 582.423C240.527 582.157 241.269 582.024 242.095 582.024ZM255.282 593.511C254.148 593.511 253.126 593.266 252.216 592.776C251.306 592.286 250.592 591.607 250.074 590.739C249.57 589.857 249.318 588.863 249.318 587.757C249.318 586.651 249.57 585.664 250.074 584.796C250.592 583.928 251.306 583.249 252.216 582.759C253.126 582.269 254.148 582.024 255.282 582.024C256.43 582.024 257.459 582.269 258.369 582.759C259.279 583.249 259.986 583.928 260.49 584.796C261.008 585.664 261.267 586.651 261.267 587.757C261.267 588.863 261.008 589.857 260.49 590.739C259.986 591.607 259.279 592.286 258.369 592.776C257.459 593.266 256.43 593.511 255.282 593.511ZM255.282 591.264C256.248 591.264 257.046 590.942 257.676 590.298C258.306 589.654 258.621 588.807 258.621 587.757C258.621 586.707 258.306 585.86 257.676 585.216C257.046 584.572 256.248 584.25 255.282 584.25C254.316 584.25 253.518 584.572 252.888 585.216C252.272 585.86 251.964 586.707 251.964 587.757C251.964 588.807 252.272 589.654 252.888 590.298C253.518 590.942 254.316 591.264 255.282 591.264ZM263.809 577.782H266.434V593.364H263.809V577.782ZM274.95 593.511C273.816 593.511 272.794 593.266 271.884 592.776C270.974 592.286 270.26 591.607 269.742 590.739C269.238 589.857 268.986 588.863 268.986 587.757C268.986 586.651 269.238 585.664 269.742 584.796C270.26 583.928 270.974 583.249 271.884 582.759C272.794 582.269 273.816 582.024 274.95 582.024C276.098 582.024 277.127 582.269 278.037 582.759C278.947 583.249 279.654 583.928 280.158 584.796C280.676 585.664 280.935 586.651 280.935 587.757C280.935 588.863 280.676 589.857 280.158 590.739C279.654 591.607 278.947 592.286 278.037 592.776C277.127 593.266 276.098 593.511 274.95 593.511ZM274.95 591.264C275.916 591.264 276.714 590.942 277.344 590.298C277.974 589.654 278.289 588.807 278.289 587.757C278.289 586.707 277.974 585.86 277.344 585.216C276.714 584.572 275.916 584.25 274.95 584.25C273.984 584.25 273.186 584.572 272.556 585.216C271.94 585.86 271.632 586.707 271.632 587.757C271.632 588.807 271.94 589.654 272.556 590.298C273.186 590.942 273.984 591.264 274.95 591.264ZM294.607 582.15V591.663C294.607 595.611 292.591 597.585 288.559 597.585C287.481 597.585 286.459 597.445 285.493 597.165C284.527 596.899 283.729 596.507 283.099 595.989L284.275 594.015C284.765 594.421 285.381 594.743 286.123 594.981C286.879 595.233 287.642 595.359 288.412 595.359C289.644 595.359 290.547 595.079 291.121 594.519C291.695 593.959 291.982 593.105 291.982 591.957V591.369C291.534 591.859 290.988 592.23 290.344 592.482C289.7 592.734 288.993 592.86 288.223 592.86C287.159 592.86 286.193 592.636 285.325 592.188C284.471 591.726 283.792 591.082 283.288 590.256C282.798 589.43 282.553 588.485 282.553 587.421C282.553 586.357 282.798 585.419 283.288 584.607C283.792 583.781 284.471 583.144 285.325 582.696C286.193 582.248 287.159 582.024 288.223 582.024C289.035 582.024 289.77 582.157 290.428 582.423C291.1 582.689 291.66 583.095 292.108 583.641V582.15H294.607ZM288.622 590.634C289.616 590.634 290.428 590.34 291.058 589.752C291.702 589.15 292.024 588.373 292.024 587.421C292.024 586.483 291.702 585.72 291.058 585.132C290.428 584.544 289.616 584.25 288.622 584.25C287.614 584.25 286.788 584.544 286.144 585.132C285.514 585.72 285.199 586.483 285.199 587.421C285.199 588.373 285.514 589.15 286.144 589.752C286.788 590.34 287.614 590.634 288.622 590.634ZM308.59 582.15L303.34 594.267C302.85 595.485 302.255 596.339 301.555 596.829C300.855 597.333 300.008 597.585 299.014 597.585C298.454 597.585 297.901 597.494 297.355 597.312C296.809 597.13 296.361 596.878 296.011 596.556L297.061 594.624C297.313 594.862 297.607 595.051 297.943 595.191C298.293 595.331 298.643 595.401 298.993 595.401C299.455 595.401 299.833 595.282 300.127 595.044C300.435 594.806 300.715 594.407 300.967 593.847L301.156 593.406L296.263 582.15H298.993L302.521 590.445L306.07 582.15H308.59ZM322.838 592.755C322.53 593.007 322.152 593.196 321.704 593.322C321.27 593.448 320.808 593.511 320.318 593.511C319.086 593.511 318.134 593.189 317.462 592.545C316.79 591.901 316.454 590.963 316.454 589.731V584.334H314.606V582.234H316.454V579.672H319.079V582.234H322.082V584.334H319.079V589.668C319.079 590.214 319.212 590.634 319.478 590.928C319.744 591.208 320.129 591.348 320.633 591.348C321.221 591.348 321.711 591.194 322.103 590.886L322.838 592.755ZM329.7 593.511C328.566 593.511 327.544 593.266 326.634 592.776C325.724 592.286 325.01 591.607 324.492 590.739C323.988 589.857 323.736 588.863 323.736 587.757C323.736 586.651 323.988 585.664 324.492 584.796C325.01 583.928 325.724 583.249 326.634 582.759C327.544 582.269 328.566 582.024 329.7 582.024C330.848 582.024 331.877 582.269 332.787 582.759C333.697 583.249 334.404 583.928 334.908 584.796C335.426 585.664 335.685 586.651 335.685 587.757C335.685 588.863 335.426 589.857 334.908 590.739C334.404 591.607 333.697 592.286 332.787 592.776C331.877 593.266 330.848 593.511 329.7 593.511ZM329.7 591.264C330.666 591.264 331.464 590.942 332.094 590.298C332.724 589.654 333.039 588.807 333.039 587.757C333.039 586.707 332.724 585.86 332.094 585.216C331.464 584.572 330.666 584.25 329.7 584.25C328.734 584.25 327.936 584.572 327.306 585.216C326.69 585.86 326.382 586.707 326.382 587.757C326.382 588.807 326.69 589.654 327.306 590.298C327.936 590.942 328.734 591.264 329.7 591.264ZM347.526 593.511C346.616 593.511 345.727 593.392 344.859 593.154C343.991 592.916 343.298 592.615 342.78 592.251L343.788 590.256C344.292 590.592 344.894 590.865 345.594 591.075C346.308 591.271 347.008 591.369 347.694 591.369C349.262 591.369 350.046 590.956 350.046 590.13C350.046 589.738 349.843 589.465 349.437 589.311C349.045 589.157 348.408 589.01 347.526 588.87C346.602 588.73 345.846 588.569 345.258 588.387C344.684 588.205 344.18 587.89 343.746 587.442C343.326 586.98 343.116 586.343 343.116 585.531C343.116 584.467 343.557 583.62 344.439 582.99C345.335 582.346 346.539 582.024 348.051 582.024C348.821 582.024 349.591 582.115 350.361 582.297C351.131 582.465 351.761 582.696 352.251 582.99L351.243 584.985C350.291 584.425 349.22 584.145 348.03 584.145C347.26 584.145 346.672 584.264 346.266 584.502C345.874 584.726 345.678 585.027 345.678 585.405C345.678 585.825 345.888 586.126 346.308 586.308C346.742 586.476 347.407 586.637 348.303 586.791C349.199 586.931 349.934 587.092 350.508 587.274C351.082 587.456 351.572 587.764 351.978 588.198C352.398 588.632 352.608 589.248 352.608 590.046C352.608 591.096 352.153 591.936 351.243 592.566C350.333 593.196 349.094 593.511 347.526 593.511ZM359.185 582.024C360.837 582.024 362.097 582.423 362.965 583.221C363.847 584.005 364.288 585.195 364.288 586.791V593.364H361.81V591.999C361.488 592.489 361.026 592.867 360.424 593.133C359.836 593.385 359.122 593.511 358.282 593.511C357.442 593.511 356.707 593.371 356.077 593.091C355.447 592.797 354.957 592.398 354.607 591.894C354.271 591.376 354.103 590.795 354.103 590.151C354.103 589.143 354.474 588.338 355.216 587.736C355.972 587.12 357.155 586.812 358.765 586.812H361.663V586.644C361.663 585.86 361.425 585.258 360.949 584.838C360.487 584.418 359.794 584.208 358.87 584.208C358.24 584.208 357.617 584.306 357.001 584.502C356.399 584.698 355.888 584.971 355.468 585.321L354.439 583.41C355.027 582.962 355.734 582.619 356.56 582.381C357.386 582.143 358.261 582.024 359.185 582.024ZM358.828 591.6C359.486 591.6 360.067 591.453 360.571 591.159C361.089 590.851 361.453 590.417 361.663 589.857V588.555H358.954C357.442 588.555 356.686 589.052 356.686 590.046C356.686 590.522 356.875 590.9 357.253 591.18C357.631 591.46 358.156 591.6 358.828 591.6ZM377.983 582.15L373.174 593.364H370.465L365.656 582.15H368.386L371.872 590.466L375.463 582.15H377.983ZM389.889 587.82C389.889 588.002 389.875 588.261 389.847 588.597H381.048C381.202 589.423 381.601 590.081 382.245 590.571C382.903 591.047 383.715 591.285 384.681 591.285C385.913 591.285 386.928 590.879 387.726 590.067L389.133 591.684C388.629 592.286 387.992 592.741 387.222 593.049C386.452 593.357 385.584 593.511 384.618 593.511C383.386 593.511 382.301 593.266 381.363 592.776C380.425 592.286 379.697 591.607 379.179 590.739C378.675 589.857 378.423 588.863 378.423 587.757C378.423 586.665 378.668 585.685 379.158 584.817C379.662 583.935 380.355 583.249 381.237 582.759C382.119 582.269 383.113 582.024 384.219 582.024C385.311 582.024 386.284 582.269 387.138 582.759C388.006 583.235 388.678 583.914 389.154 584.796C389.644 585.664 389.889 586.672 389.889 587.82ZM384.219 584.124C383.379 584.124 382.665 584.376 382.077 584.88C381.503 585.37 381.153 586.028 381.027 586.854H387.39C387.278 586.042 386.935 585.384 386.361 584.88C385.787 584.376 385.073 584.124 384.219 584.124ZM408.778 582.15L403.528 594.267C403.038 595.485 402.443 596.339 401.743 596.829C401.043 597.333 400.196 597.585 399.202 597.585C398.642 597.585 398.089 597.494 397.543 597.312C396.997 597.13 396.549 596.878 396.199 596.556L397.249 594.624C397.501 594.862 397.795 595.051 398.131 595.191C398.481 595.331 398.831 595.401 399.181 595.401C399.643 595.401 400.021 595.282 400.315 595.044C400.623 594.806 400.903 594.407 401.155 593.847L401.344 593.406L396.451 582.15H399.181L402.709 590.445L406.258 582.15H408.778ZM415.182 593.511C414.048 593.511 413.026 593.266 412.116 592.776C411.206 592.286 410.492 591.607 409.974 590.739C409.47 589.857 409.218 588.863 409.218 587.757C409.218 586.651 409.47 585.664 409.974 584.796C410.492 583.928 411.206 583.249 412.116 582.759C413.026 582.269 414.048 582.024 415.182 582.024C416.33 582.024 417.359 582.269 418.269 582.759C419.179 583.249 419.886 583.928 420.39 584.796C420.908 585.664 421.167 586.651 421.167 587.757C421.167 588.863 420.908 589.857 420.39 590.739C419.886 591.607 419.179 592.286 418.269 592.776C417.359 593.266 416.33 593.511 415.182 593.511ZM415.182 591.264C416.148 591.264 416.946 590.942 417.576 590.298C418.206 589.654 418.521 588.807 418.521 587.757C418.521 586.707 418.206 585.86 417.576 585.216C416.946 584.572 416.148 584.25 415.182 584.25C414.216 584.25 413.418 584.572 412.788 585.216C412.172 585.86 411.864 586.707 411.864 587.757C411.864 588.807 412.172 589.654 412.788 590.298C413.418 590.942 414.216 591.264 415.182 591.264ZM434.566 582.15V593.364H432.067V591.936C431.647 592.44 431.122 592.832 430.492 593.112C429.862 593.378 429.183 593.511 428.455 593.511C426.957 593.511 425.774 593.098 424.906 592.272C424.052 591.432 423.625 590.193 423.625 588.555V582.15H426.25V588.198C426.25 589.206 426.474 589.962 426.922 590.466C427.384 590.956 428.035 591.201 428.875 591.201C429.813 591.201 430.555 590.914 431.101 590.34C431.661 589.752 431.941 588.912 431.941 587.82V582.15H434.566ZM440.533 583.788C441.289 582.612 442.619 582.024 444.523 582.024V584.523C444.299 584.481 444.096 584.46 443.914 584.46C442.892 584.46 442.094 584.761 441.52 585.363C440.946 585.951 440.659 586.805 440.659 587.925V593.364H438.034V582.15H440.533V583.788ZM459.46 592.755C459.152 593.007 458.774 593.196 458.326 593.322C457.892 593.448 457.43 593.511 456.94 593.511C455.708 593.511 454.756 593.189 454.084 592.545C453.412 591.901 453.076 590.963 453.076 589.731V584.334H451.228V582.234H453.076V579.672H455.701V582.234H458.704V584.334H455.701V589.668C455.701 590.214 455.834 590.634 456.1 590.928C456.366 591.208 456.751 591.348 457.255 591.348C457.843 591.348 458.333 591.194 458.725 590.886L459.46 592.755ZM461.651 582.15H464.276V593.364H461.651V582.15ZM462.974 580.302C462.498 580.302 462.099 580.155 461.777 579.861C461.455 579.553 461.294 579.175 461.294 578.727C461.294 578.279 461.455 577.908 461.777 577.614C462.099 577.306 462.498 577.152 462.974 577.152C463.45 577.152 463.849 577.299 464.171 577.593C464.493 577.873 464.654 578.23 464.654 578.664C464.654 579.126 464.493 579.518 464.171 579.84C463.863 580.148 463.464 580.302 462.974 580.302ZM481.907 582.024C483.321 582.024 484.441 582.437 485.267 583.263C486.093 584.075 486.506 585.3 486.506 586.938V593.364H483.881V587.274C483.881 586.294 483.664 585.559 483.23 585.069C482.796 584.565 482.173 584.313 481.361 584.313C480.479 584.313 479.772 584.607 479.24 585.195C478.708 585.769 478.442 586.595 478.442 587.673V593.364H475.817V587.274C475.817 586.294 475.6 585.559 475.166 585.069C474.732 584.565 474.109 584.313 473.297 584.313C472.401 584.313 471.687 584.6 471.155 585.174C470.637 585.748 470.378 586.581 470.378 587.673V593.364H467.753V582.15H470.252V583.578C470.672 583.074 471.197 582.689 471.827 582.423C472.457 582.157 473.157 582.024 473.927 582.024C474.767 582.024 475.509 582.185 476.153 582.507C476.811 582.815 477.329 583.277 477.707 583.893C478.169 583.305 478.764 582.85 479.492 582.528C480.22 582.192 481.025 582.024 481.907 582.024ZM500.536 587.82C500.536 588.002 500.522 588.261 500.494 588.597H491.695C491.849 589.423 492.248 590.081 492.892 590.571C493.55 591.047 494.362 591.285 495.328 591.285C496.56 591.285 497.575 590.879 498.373 590.067L499.78 591.684C499.276 592.286 498.639 592.741 497.869 593.049C497.099 593.357 496.231 593.511 495.265 593.511C494.033 593.511 492.948 593.266 492.01 592.776C491.072 592.286 490.344 591.607 489.826 590.739C489.322 589.857 489.07 588.863 489.07 587.757C489.07 586.665 489.315 585.685 489.805 584.817C490.309 583.935 491.002 583.249 491.884 582.759C492.766 582.269 493.76 582.024 494.866 582.024C495.958 582.024 496.931 582.269 497.785 582.759C498.653 583.235 499.325 583.914 499.801 584.796C500.291 585.664 500.536 586.672 500.536 587.82ZM494.866 584.124C494.026 584.124 493.312 584.376 492.724 584.88C492.15 585.37 491.8 586.028 491.674 586.854H498.037C497.925 586.042 497.582 585.384 497.008 584.88C496.434 584.376 495.72 584.124 494.866 584.124ZM503.929 593.511C503.453 593.511 503.047 593.35 502.711 593.028C502.375 592.692 502.207 592.272 502.207 591.768C502.207 591.25 502.368 590.83 502.69 590.508C503.026 590.186 503.439 590.025 503.929 590.025C504.419 590.025 504.825 590.186 505.147 590.508C505.483 590.83 505.651 591.25 505.651 591.768C505.651 592.272 505.483 592.692 505.147 593.028C504.811 593.35 504.405 593.511 503.929 593.511Z" fill="#1A1A1A"/>
            <path d="M335 462.332C276.463 453.314 170.088 425.297 177.354 479.243C183.767 526.858 396.225 517.949 317.036 448.053" stroke="url(#paint2_linear_1139:21360)" stroke-width="3" stroke-linecap="round"/>
            <defs>
            <filter id="filter0_d_1139:21360" x="35" y="65" width="864" height="694" filterUnits="userSpaceOnUse" color-interpolation-filters="sRGB">
            <feFlood flood-opacity="0" result="BackgroundImageFix"/>
            <feColorMatrix in="SourceAlpha" type="matrix" values="0 0 0 0 0 0 0 0 0 0 0 0 0 0 0 0 0 0 127 0" result="hardAlpha"/>
            <feOffset dx="30" dy="30"/>
            <feGaussianBlur stdDeviation="10"/>
            <feColorMatrix type="matrix" values="0 0 0 0 0 0 0 0 0 0 0 0 0 0 0 0 0 0 0.09 0"/>
            <feBlend mode="normal" in2="BackgroundImageFix" result="effect1_dropShadow_1139:21360"/>
            <feBlend mode="normal" in="SourceGraphic" in2="effect1_dropShadow_1139:21360" result="shape"/>
            </filter>
            <linearGradient id="paint0_linear_1139:21360" x1="0.00039432" y1="497" x2="745.791" y2="-91.224" gradientUnits="userSpaceOnUse">
            <stop stop-color="#E1C579"/>
            <stop offset="1" stop-color="#D35252"/>
            </linearGradient>
            <linearGradient id="paint1_linear_1139:21360" x1="512" y1="867" x2="1109.88" y2="398.263" gradientUnits="userSpaceOnUse">
            <stop stop-color="#9A79E1"/>
            <stop offset="1" stop-color="#D35252"/>
            </linearGradient>
            <linearGradient id="paint2_linear_1139:21360" x1="177" y1="509" x2="253.583" y2="355.994" gradientUnits="userSpaceOnUse">
            <stop stop-color="#E1C579"/>
            <stop offset="1" stop-color="#D35252"/>
            </linearGradient>
            </defs>
        </svg> 