<svg width="24" height="24" viewBox="0 0 24 24" fill="none" xmlns="http://www.w3.org/2000/svg">
<path fill-rule="evenodd" clip-rule="evenodd" d="M7.41001 9.04178H16.5901C16.4143 5.8078 14.1424 3.76045 12 3.76045C9.85766 3.76045 7.5858 5.8078 7.41001 9.04178ZM5.56186 9.21192C4.55696 9.56622 3.78606 10.4426 3.60066 11.5437L2.42911 18.5019C2.12099 20.332 3.53165 22 5.38748 22H18.6126C20.4684 22 21.8791 20.332 21.5709 18.5019L20.3994 11.5437C20.214 10.4426 19.4431 9.56623 18.4382 9.21193C18.3313 5.20794 15.4897 2 12 2C8.51032 2 5.66877 5.20794 5.56186 9.21192Z" fill="#9F9F9F"/>
</svg>
