<svg width="24" height="24" viewBox="0 0 24 24" fill="none" xmlns="http://www.w3.org/2000/svg">
<path fill-rule="evenodd" clip-rule="evenodd" d="M9.37576 2C7.74053 2 6.54555 3.54402 6.95566 5.12699L7.71414 8.05461H4.71298C2.95013 8.05461 1.65664 9.65324 2.08419 11.3035L4.34227 20.0194C4.64384 21.1834 5.72767 22 6.97107 22H15.8366C17.5994 22 18.8929 20.4014 18.4654 18.7511L17.8106 16.2236H19.4979C21.1331 16.2236 22.3281 14.6796 21.918 13.0966L19.5283 3.87301C19.2426 2.77019 18.2475 2 17.1082 2H9.37576ZM8.16575 9.79778L9.34529 14.3506C9.63101 15.4534 10.6262 16.2236 11.7654 16.2236H15.9485L16.7129 19.1738C16.8554 19.7239 16.4242 20.2568 15.8366 20.2568H6.97107C6.5566 20.2568 6.19532 19.9846 6.0948 19.5966L3.83672 10.8808C3.6942 10.3307 4.12537 9.79778 4.71298 9.79778H8.16575Z" fill="#9F9F9F"/>
</svg>
