<svg width="24" height="24" viewBox="0 0 24 24" fill="none" xmlns="http://www.w3.org/2000/svg">
<path fill-rule="evenodd" clip-rule="evenodd" d="M16.1202 10.4721C16.1202 13.5915 13.5915 16.1202 10.4721 16.1202C7.35279 16.1202 4.82405 13.5915 4.82405 10.4721C4.82405 7.35279 7.35279 4.82405 10.4721 4.82405C13.5915 4.82405 16.1202 7.35279 16.1202 10.4721ZM18.9443 10.4721C18.9443 15.1512 15.1512 18.9443 10.4721 18.9443C5.79311 18.9443 2 15.1512 2 10.4721C2 5.79311 5.79311 2 10.4721 2C15.1512 2 18.9443 5.79311 18.9443 10.4721ZM17.1118 17.1118C16.4376 17.786 16.4376 18.879 17.1118 19.5531L19.0531 21.4944C19.7272 22.1685 20.8202 22.1685 21.4944 21.4944C22.1685 20.8203 22.1685 19.7273 21.4944 19.0531L19.5531 17.1118C18.8789 16.4377 17.7859 16.4377 17.1118 17.1118Z" fill="#9F9F9F"/>
</svg>
