<svg width="24" height="24" viewBox="0 0 24 24" fill="none" xmlns="http://www.w3.org/2000/svg">
<path fill-rule="evenodd" clip-rule="evenodd" d="M1.44331 9.50021C0.550147 11.0472 0.550146 12.9532 1.44331 14.5002L4.55656 19.8925C5.44972 21.4395 7.10036 22.3925 8.88669 22.3925H15.1132C16.8995 22.3925 18.5501 21.4395 19.4433 19.8925L22.5566 14.5002C23.4497 12.9532 23.4497 11.0472 22.5566 9.50021L19.4433 4.10791C18.5501 2.5609 16.8995 1.60791 15.1132 1.60791H8.88669C7.10036 1.60791 5.44972 2.5609 4.55656 4.10791L1.44331 9.50021ZM11.9999 18.0002C15.3136 18.0002 17.9999 15.3139 17.9999 12.0002C17.9999 8.68651 15.3136 6.00021 11.9999 6.00021C8.68623 6.00021 5.99993 8.68651 5.99993 12.0002C5.99993 15.3139 8.68623 18.0002 11.9999 18.0002Z" fill="#9F9F9F"/>
</svg>
