<svg width="24" height="24" viewBox="0 0 24 24" fill="none" xmlns="http://www.w3.org/2000/svg">
<path d="M21.2995 7.58005H15.7195C15.3295 7.58005 15.0195 7.27005 15.0195 6.88005C15.0195 6.49005 15.3295 6.18005 15.7195 6.18005H21.2995C21.6895 6.18005 21.9995 6.49005 21.9995 6.88005C21.9995 7.27005 21.6895 7.58005 21.2995 7.58005Z" fill="#292D32"/>
<path d="M6.42 7.58005H2.7C2.31 7.58005 2 7.27005 2 6.88005C2 6.49005 2.31 6.18005 2.7 6.18005H6.42C6.81 6.18005 7.12 6.49005 7.12 6.88005C7.12 7.27005 6.8 7.58005 6.42 7.58005Z" fill="#292D32"/>
<path d="M10.1404 10.8301C12.322 10.8301 14.0904 9.06158 14.0904 6.88005C14.0904 4.69853 12.322 2.93005 10.1404 2.93005C7.95891 2.93005 6.19043 4.69853 6.19043 6.88005C6.19043 9.06158 7.95891 10.8301 10.1404 10.8301Z" fill="#292D32"/>
<path d="M21.2999 17.81H17.5799C17.1899 17.81 16.8799 17.5 16.8799 17.11C16.8799 16.72 17.1899 16.41 17.5799 16.41H21.2999C21.6899 16.41 21.9999 16.72 21.9999 17.11C21.9999 17.5 21.6899 17.81 21.2999 17.81Z" fill="#292D32"/>
<path d="M8.28 17.81H2.7C2.31 17.81 2 17.5 2 17.11C2 16.72 2.31 16.41 2.7 16.41H8.28C8.67 16.41 8.98 16.72 8.98 17.11C8.98 17.5 8.66 17.81 8.28 17.81Z" fill="#292D32"/>
<path d="M13.8602 21.07C16.0417 21.07 17.8102 19.3016 17.8102 17.12C17.8102 14.9385 16.0417 13.17 13.8602 13.17C11.6786 13.17 9.91016 14.9385 9.91016 17.12C9.91016 19.3016 11.6786 21.07 13.8602 21.07Z" fill="#292D32"/>
</svg>
