<svg xmlns="http://www.w3.org/2000/svg" width="40.693" height="40" viewBox="0 0 40.693 40">
  <g id="Group_13" data-name="Group 13" transform="translate(0.5 0.066)">
    <path id="Union_5" data-name="Union 5" d="M11.686,17.875a1.2,1.2,0,0,1-.2-.691,28.742,28.742,0,0,1,.23-3.335H.687A.607.607,0,0,1,.2,13.565a1.2,1.2,0,0,1-.2-.692C.083,4.607,3.444.412,3.587.236A.546.546,0,0,1,4.472.217c3.781,4.325,7.841.039,7.881,0a.546.546,0,0,1,.883.054,13.636,13.636,0,0,1,2.085,4.093.54.54,0,0,1,.642.169c3.761,4.3,7.717.171,7.883-.008a.533.533,0,0,1,.69-.115A15.058,15.058,0,0,1,26.691.236a.546.546,0,0,1,.885-.019c3.78,4.325,7.842.039,7.884,0a.543.543,0,0,1,.881.054c3.492,4.493,3.35,12.317,3.342,12.648-.013.521-.316.933-.686.933l-11.1,0a28.034,28.034,0,0,1,.175,3.375c-.012.519-.317.931-.686.931l-15.206.006A.607.607,0,0,1,11.686,17.875Z" transform="translate(0 17.371)" fill="#1a1a1a" stroke="rgba(0,0,0,0)" stroke-miterlimit="10" stroke-width="1"/>
    <path id="Union_6" data-name="Union 6" d="M17.991,16.072a6.506,6.506,0,0,1-6.417-5.511,6.294,6.294,0,0,1-.476.535A6.45,6.45,0,0,1,6.5,13h0A6.5,6.5,0,1,1,12.92,5.509a6.877,6.877,0,0,1,.475-.533,6.483,6.483,0,0,1,9.771.675A6.5,6.5,0,1,1,34.2,11.1,6.45,6.45,0,0,1,29.608,13h0a6.493,6.493,0,0,1-5.175-2.581,6.5,6.5,0,0,1-6.438,5.65Z" transform="translate(1.788 3.968)" fill="#1a1a1a"/>
    <rect id="Rectangle_131" data-name="Rectangle 131" width="40" height="40" transform="translate(-0.393 -0.066)" fill="none"/>
  </g>
</svg>
