<svg xmlns="http://www.w3.org/2000/svg" xmlns:xlink="http://www.w3.org/1999/xlink" width="55" height="55" viewBox="0 0 55 55">
  <defs>
    <filter id="Rectangle_3499" x="0" y="0" width="55" height="55" filterUnits="userSpaceOnUse">
      <feOffset dx="1" dy="1" input="SourceAlpha"/>
      <feGaussianBlur stdDeviation="1" result="blur"/>
      <feFlood flood-opacity="0.161"/>
      <feComposite operator="in" in2="blur"/>
      <feComposite in="SourceGraphic"/>
    </filter>
  </defs>
  <g id="Group_2948" data-name="Group 2948" transform="translate(-434 -580)">
    <g transform="matrix(1, 0, 0, 1, 434, 580)" filter="url(#Rectangle_3499)">
      <rect id="Rectangle_3499-2" data-name="Rectangle 3499" width="49" height="49" rx="18" transform="translate(2 2)" fill="#f1f1f1"/>
    </g>
    <g id="_add_a_photo" data-name=" add_a_photo" transform="translate(445.821 590.58)">
      <rect id="Path" width="28" height="27" transform="translate(0.179 0.42)" fill="rgba(0,0,0,0)"/>
      <path id="Icon" d="M23.738,25H5.653a2.327,2.327,0,0,1-2.262-2.382V10.38a2.171,2.171,0,0,0,1.131.333A2.326,2.326,0,0,0,6.783,8.333V7.142h1.13a2.326,2.326,0,0,0,2.261-2.381,2.462,2.462,0,0,0-.316-1.19h7.235a2.191,2.191,0,0,1,1.661.774l1.4,1.607h3.583A2.326,2.326,0,0,1,26,8.333V22.618A2.327,2.327,0,0,1,23.738,25ZM14.7,9.524a5.815,5.815,0,0,0-5.653,5.952A5.815,5.815,0,0,0,14.7,21.429a5.815,5.815,0,0,0,5.652-5.953A5.814,5.814,0,0,0,14.7,9.524Zm0,9.524A3.489,3.489,0,0,1,11.3,15.476,3.489,3.489,0,0,1,14.7,11.9a3.489,3.489,0,0,1,3.391,3.571A3.489,3.489,0,0,1,14.7,19.048ZM4.522,9.523a1.163,1.163,0,0,1-1.131-1.19V5.952H1.13A1.163,1.163,0,0,1,0,4.761a1.163,1.163,0,0,1,1.13-1.19H3.391V1.19A1.163,1.163,0,0,1,4.522,0a1.163,1.163,0,0,1,1.13,1.19V3.571H7.913a1.163,1.163,0,0,1,1.13,1.19,1.163,1.163,0,0,1-1.13,1.19H5.653V8.333A1.163,1.163,0,0,1,4.522,9.523Z" transform="translate(0.179 1.42)" fill="#fff"/>
    </g>
  </g>
</svg>
