<svg id="_delete" data-name=" delete" xmlns="http://www.w3.org/2000/svg" width="32" height="32" viewBox="0 0 32 32">
  <rect id="Path" width="32" height="32" transform="translate(0 0)" fill="rgba(0,0,0,0)"/>
  <path id="Icon" d="M18.072,31H4.929a3.371,3.371,0,0,1-3.285-3.444V10.334A3.372,3.372,0,0,1,4.929,6.888H18.072a3.372,3.372,0,0,1,3.285,3.446V27.556A3.371,3.371,0,0,1,18.072,31ZM21.357,5.166H1.644A1.686,1.686,0,0,1,0,3.444,1.686,1.686,0,0,1,1.644,1.722H5.75L6.917.5A1.622,1.622,0,0,1,8.067,0h6.868a1.621,1.621,0,0,1,1.149.5L17.25,1.722h4.107A1.686,1.686,0,0,1,23,3.444,1.686,1.686,0,0,1,21.357,5.166Z" transform="translate(5 0)" fill="#707070"/>
</svg>
