<svg xmlns="http://www.w3.org/2000/svg" width="37.039" height="37.039" viewBox="0 0 37.039 37.039">
  <g id="Group_2115" data-name="Group 2115" transform="translate(0 0)">
    <path id="Path" d="M0,0H37.039V37.009H0Z" transform="translate(0 0)" fill="none"/>
    <g id="Group_826" data-name="Group 826" transform="translate(0.661 0)">
      <path id="Path_2483" data-name="Path 2483" d="M556.846,249.356a11.092,11.092,0,0,0,22.126-1.007v-5.733a4.73,4.73,0,1,0-3.572-.059v5.792a7.515,7.515,0,0,1-14.955.986c5.433-.88,9.207-5.6,9.207-11.872V224.059a1.781,1.781,0,0,0-2.865-1.4A2.328,2.328,0,1,0,565.628,227a2.424,2.424,0,0,0,.45-.043v10.511c0,4.994-3.081,8.483-7.495,8.483s-7.494-3.488-7.494-8.483V226.986c.067.006.135.01.2.01a2.322,2.322,0,1,0-1.011-4.414,1.787,1.787,0,0,0-2.767,1.476v13.405C547.516,243.783,551.347,248.529,556.846,249.356Zm-8.258-25.3a.715.715,0,0,1,1.43,0v13.405c0,5.619,3.522,9.544,8.566,9.544s8.568-3.925,8.568-9.544V224.059a.714.714,0,0,1,1.429,0v13.405c0,6.351-4.2,10.96-10,10.96s-10-4.609-10-10.96Zm3.621.616a.911.911,0,0,1-.915.906.852.852,0,0,1-.2-.025v-1.5a1.717,1.717,0,0,0-.027-.258.9.9,0,0,1,1.146.874Zm12.5,0a.912.912,0,0,1,1.383-.776,1.468,1.468,0,0,0-.017.16v1.4a.922.922,0,0,1-.45.121A.911.911,0,0,1,564.712,224.675ZM576.47,248.35V238.226a.716.716,0,0,1,1.431,0V248.35a10.021,10.021,0,0,1-19.966,1.116c.213.011.43.019.648.019.268,0,.53-.013.791-.03a8.59,8.59,0,0,0,17.1-1.106Zm.794-13.727a3.619,3.619,0,0,1,1.708,6.833v-3.229a1.786,1.786,0,0,0-3.572,0v3.139a3.617,3.617,0,0,1,1.865-6.743Z" transform="translate(-547.516 -222.29)" fill="#1a1a1a"/>
      <path id="Path_2751" data-name="Path 2751" d="M17.6,1.16c-.209,0-1.042.419-1.042.7s0,1.4.278,1.467,1.181-.14,1.389,0,.833-.349.764,0-.139,11.106,0,11.6a28.951,28.951,0,0,1-.764,4.331s-1.39,2.3-1.667,2.654A27.056,27.056,0,0,1,13.5,23.722a16.225,16.225,0,0,1-2.779.629,18.231,18.231,0,0,1-3.612-1.118c-.278-.14-2.5-2.1-2.5-2.1l-1.6-3.493v-4.68s.208-7.4,0-7.614a1.747,1.747,0,0,1,0-1.327c.139-.07,1.6-.7,1.6-.7L5.3,2.347s-.486-.768-.695-1.187-1.6-.629-1.6-.629H1.758S.647.042.578.531s.278,2.445,0,2.794,0,13.342,0,13.342L1.064,19.6l1.945,2.794,1.6,1.956,1.945,1.257,2.64.559s.695-.419.764,0a14.354,14.354,0,0,1,0,2.445,31.7,31.7,0,0,0,1.876,3.772l3.612,2.864L18.986,36.3s3.611,0,4.167-.419S26.9,34.06,26.9,34.06a29.325,29.325,0,0,0,2.084-2.654c0-.21,1.11-2.165,1.319-2.794s.278-4.75.417-5.379a31.176,31.176,0,0,0,0-3.632s1.459-.349,1.737-.768,1.25-3.353,1.25-3.353l-1.667-2.864a9.089,9.089,0,0,0-2.153-.768c-.556,0-2.639.14-2.987.768s-1.042,1.816-1.32,2.3a3.957,3.957,0,0,0,0,2.375,8.251,8.251,0,0,0,1.32,1.537s1.25.489,1.32.768,0,4.75,0,4.75.278,2.654,0,3-.487,2.235-.834,2.445-1.527,1.677-1.806,1.886a12.778,12.778,0,0,1-2.432,1.676,15.2,15.2,0,0,1-2.848.7l-2.987-.7-1.875-.978L13.5,30.847s-.833-1.956-.9-2.235-.764-2.165-.764-2.165l3.195-.838,2.57-1.257,1.389-2.445,1.875-2.654a26.1,26.1,0,0,0,.556-2.585c0-.419-.347-3.423,0-3.7s.069-7.4,0-7.614.208-4.191,0-4.191S20.583.671,20.3.531s-1.667.629-1.667.629Z" transform="translate(0.147 0.101)" fill="#1a1a1a"/>
    </g>
  </g>
</svg>
