<svg xmlns="http://www.w3.org/2000/svg" width="40.078" height="39.685" viewBox="0 0 40.078 39.685">
  <g id="Group_854" data-name="Group 854" transform="translate(0.393 0)">
    <g id="Group_842" data-name="Group 842" transform="translate(0)">
      <rect id="Rectangle_125" data-name="Rectangle 125" width="40" height="39" transform="translate(-0.393 0.405)" fill="none"/>
      <path id="Path_734" data-name="Path 734" d="M104.5,277.955l-6.612-6.038v-8.377a.552.552,0,0,0-.576-.526h-4.08a.552.552,0,0,0-.576.526v3.6l-6.027-5.5a2.093,2.093,0,0,0-2.77,0L65.968,277.972a1.759,1.759,0,0,0,1.157,3.045l2.889.309v17.682a1.881,1.881,0,0,0,1.96,1.791h8.434V287.969a1.631,1.631,0,0,1,1.7-1.553H88.36a1.631,1.631,0,0,1,1.7,1.553V300.8H98.5a1.881,1.881,0,0,0,1.96-1.791v-17.7l2.889-.312A1.758,1.758,0,0,0,104.5,277.955Z" transform="translate(-65.391 -261.114)" fill="#1a1a1a"/>
    </g>
  </g>
</svg>
