<svg xmlns="http://www.w3.org/2000/svg" width="37.039" height="37.039" viewBox="0 0 37.039 37.039">
  <g id="Group_1949" data-name="Group 1949" transform="translate(0 0)">
    <path id="Path_2725" data-name="Path 2725" d="M0,0H37.039V37.039H0Z" transform="translate(0 0)" fill="none"/>
    <g id="Group_1948" data-name="Group 1948" transform="translate(1.037 1.037)">
      <g id="Path_2750" data-name="Path 2750" transform="translate(23.351 0) rotate(45)" fill="none">
        <path d="M7.453,0a7.414,7.414,0,0,1,7.424,7.424L14.86,25.586A7.43,7.43,0,1,1,0,25.6L.016,7.437A7.446,7.446,0,0,1,7.453,0Z" stroke="none"/>
        <path d="M 7.453572750091553 1 C 3.907002449035645 1.003120422363281 1.019123077392578 3.891010284423828 1.015993118286133 7.437580108642578 L 1.000002861022949 25.60028076171875 C 0.9984931945800781 27.31661987304688 1.664992332458496 28.92974090576172 2.87672233581543 30.14249038696289 C 4.088382720947266 31.35517120361328 5.700793266296387 32.02302169799805 7.416932582855225 32.02302169799805 L 7.422732830047607 32.02302169799805 C 10.96929264068604 32.01988983154297 13.85718250274658 29.13199996948242 13.86031246185303 25.58544158935547 L 13.87630271911621 7.422731399536133 C 13.87781238555908 5.706390380859375 13.21131324768066 4.093280792236328 11.99958229064941 2.880531311035156 C 10.78792285919189 1.667850494384766 9.175512313842773 1 7.459372997283936 1 L 7.453572750091553 1 M 7.459372043609619 -3.814697265625e-06 C 11.56016635894775 -3.814697265625e-06 14.87991142272949 3.322053909301758 14.87630271911621 7.423610687255859 L 14.86031246185303 25.5863208770752 C 14.85669326782227 29.68988037109375 11.52717304229736 33.01940155029297 7.423612594604492 33.02302169799805 C 7.421608924865723 33.02302169799805 7.418937206268311 33.02302551269531 7.416933536529541 33.02302551269531 C 3.316139221191406 33.02302551269531 -0.003605842590332031 29.70096778869629 2.86102294921875e-06 25.59940147399902 L 0.01599311828613281 7.436700820922852 C 0.01961326599121094 3.333141326904297 3.349132537841797 0.003612518310546875 7.452692985534668 0 C 7.454696655273438 0 7.45736837387085 -3.814697265625e-06 7.459372043609619 -3.814697265625e-06 Z" stroke="none" fill="#1a1a1a"/>
      </g>
      <path id="Path_2726" data-name="Path 2726" d="M0,0H14.818V9.056A7.409,7.409,0,0,1,0,9.056Z" transform="translate(12.687 11.179) rotate(45)" fill="#1a1a1a"/>
      <g id="Ellipse_17" data-name="Ellipse 17" transform="translate(20.43 19.541)" fill="none" stroke="#1a1a1a" stroke-width="1">
        <circle cx="6.614" cy="6.614" r="6.614" stroke="none"/>
        <circle cx="6.614" cy="6.614" r="6.114" fill="none"/>
      </g>
      <path id="Path_2724" data-name="Path 2724" d="M0,0H10.829" transform="translate(23.167 22.418) rotate(45)" fill="none" stroke="#1a1a1a" stroke-width="1"/>
    </g>
  </g>
</svg>
