<svg width="94" height="24" viewBox="0 0 94 24" fill="none" xmlns="http://www.w3.org/2000/svg">
<path d="M72.5959 6.26086H67.5276C67.2295 6.26086 66.9313 6.559 66.7823 6.85714L64.6953 19.9752C64.6953 20.2733 64.8444 20.4224 65.1425 20.4224H67.8257C68.1239 20.4224 68.273 20.2733 68.273 19.9752L68.8692 16.2484C68.8692 15.9503 69.1674 15.6522 69.6146 15.6522H71.2543C74.6829 15.6522 76.6208 14.0124 77.068 10.7329C77.3661 9.3913 77.068 8.19876 76.4717 7.45341C75.5773 6.70807 74.2357 6.26086 72.5959 6.26086ZM73.1922 11.1801C72.8941 12.9689 71.5525 12.9689 70.2108 12.9689H69.3164L69.9127 9.54037C69.9127 9.3913 70.0618 9.24223 70.3599 9.24223H70.6581C71.5525 9.24223 72.4469 9.24223 72.8941 9.83851C73.1922 9.98757 73.1922 10.4348 73.1922 11.1801Z" fill="#139AD6"/>
<path d="M36.0745 6.26086H31.0061C30.708 6.26086 30.4099 6.559 30.2608 6.85714L28.1738 19.9752C28.1738 20.2733 28.3229 20.4224 28.621 20.4224H31.0061C31.3043 20.4224 31.6024 20.1242 31.7515 19.8261L32.3477 16.2484C32.3477 15.9503 32.6459 15.6522 33.0931 15.6522H34.7328C38.1614 15.6522 40.0993 14.0124 40.5465 10.7329C40.8446 9.3913 40.5465 8.19876 39.9502 7.45341C39.0558 6.70807 37.8633 6.26086 36.0745 6.26086ZM36.6707 11.1801C36.3726 12.9689 35.031 12.9689 33.6894 12.9689H32.944L33.5403 9.54037C33.5403 9.3913 33.6894 9.24223 33.9875 9.24223H34.2856C35.18 9.24223 36.0745 9.24223 36.5217 9.83851C36.6707 9.98757 36.8198 10.4348 36.6707 11.1801Z" fill="#263B80"/>
<path d="M51.4291 11.031H49.044C48.8949 11.031 48.5968 11.1801 48.5968 11.3292L48.4477 12.0745L48.2986 11.7764C47.7024 11.031 46.6589 10.7329 45.4663 10.7329C42.7831 10.7329 40.398 12.8199 39.9508 15.6522C39.6527 17.1429 40.0999 18.4845 40.8452 19.3789C41.5906 20.2733 42.634 20.5714 43.9757 20.5714C46.2117 20.5714 47.4042 19.2298 47.4042 19.2298L47.2552 19.9752C47.2552 20.2733 47.4042 20.4224 47.7024 20.4224H49.9384C50.2365 20.4224 50.5347 20.1242 50.6837 19.8261L52.0254 11.4783C51.8763 11.3292 51.5781 11.031 51.4291 11.031ZM48.0005 15.8012C47.7024 17.1429 46.6589 18.1863 45.1682 18.1863C44.4229 18.1863 43.8266 17.8882 43.5285 17.5901C43.2303 17.1429 43.0812 16.5466 43.0812 15.8012C43.2303 14.4596 44.4229 13.4161 45.7645 13.4161C46.5098 13.4161 46.957 13.7143 47.4042 14.0124C47.8514 14.4596 48.0005 15.205 48.0005 15.8012Z" fill="#263B80"/>
<path d="M87.8021 11.0312H85.417C85.268 11.0312 84.9698 11.1802 84.9698 11.3293L84.8208 12.0746L84.6717 11.7765C84.0754 11.0312 83.0319 10.733 81.8394 10.733C79.1562 10.733 76.7711 12.82 76.3239 15.6523C76.0257 17.143 76.4729 18.4846 77.2183 19.379C77.9636 20.2734 79.0071 20.5716 80.3487 20.5716C82.5847 20.5716 83.7773 19.2299 83.7773 19.2299L83.6282 19.9753C83.6282 20.2734 83.7773 20.4225 84.0754 20.4225H86.3114C86.6096 20.4225 86.9077 20.1243 87.0568 19.8262L88.3984 11.4784C88.2493 11.3293 88.1003 11.0312 87.8021 11.0312ZM84.3735 15.8014C84.0754 17.143 83.0319 18.1865 81.5413 18.1865C80.7959 18.1865 80.1996 17.8883 79.9015 17.5902C79.6034 17.143 79.4543 16.5467 79.4543 15.8014C79.6034 14.4597 80.7959 13.4163 82.1375 13.4163C82.8829 13.4163 83.3301 13.7144 83.7773 14.0125C84.3736 14.4597 84.5226 15.2051 84.3735 15.8014Z" fill="#139AD6"/>
<path d="M64.3982 11.031H61.864C61.5659 11.031 61.4168 11.1801 61.2678 11.3291L57.9883 16.3975L56.4976 11.6273C56.3485 11.3291 56.1994 11.1801 55.7522 11.1801H53.3671C53.069 11.1801 52.9199 11.4782 52.9199 11.7763L55.6032 19.677L53.069 23.2546C52.9199 23.5528 53.069 24 53.3671 24H55.7522C56.0504 24 56.1994 23.8509 56.3485 23.7018L64.5473 11.9254C64.9945 11.4782 64.6963 11.031 64.3982 11.031Z" fill="#263B80"/>
<path d="M90.6338 6.70806L88.5469 20.1242C88.5469 20.4224 88.6959 20.5714 88.9941 20.5714H91.081C91.3792 20.5714 91.6773 20.2733 91.8264 19.9751L93.9133 6.85712C93.9133 6.55899 93.7643 6.40992 93.4661 6.40992H91.081C90.932 6.26085 90.7829 6.40992 90.6338 6.70806Z" fill="#139AD6"/>
<path d="M17.1429 1.78882C16.0994 0.596272 14.1615 0 11.4783 0H4.02485C3.57764 0 3.13044 0.447203 2.98137 0.894408L0 20.4224C0 20.8696 0.298137 21.1677 0.596274 21.1677H5.2174L6.40994 13.8634V14.1615C6.55901 13.7143 7.00622 13.2671 7.45342 13.2671H9.68945C14.0124 13.2671 17.2919 11.4783 18.3354 6.55901C18.3354 6.40994 18.3354 6.26087 18.3354 6.1118C18.1863 6.1118 18.1863 6.1118 18.3354 6.1118C18.4845 4.17391 18.1863 2.98137 17.1429 1.78882Z" fill="#263B80"/>
<path d="M18.1857 6.11182C18.1857 6.26088 18.1857 6.40995 18.1857 6.55902C17.1422 11.6274 13.8627 13.2671 9.53972 13.2671H7.30369C6.85649 13.2671 6.40928 13.7143 6.26022 14.1615L4.76953 23.2547C4.76953 23.5528 4.9186 23.851 5.3658 23.851H9.24158C9.68879 23.851 10.136 23.5528 10.136 23.1056V22.9565L10.8813 18.3354V18.0373C10.8813 17.5901 11.3285 17.2919 11.7757 17.2919H12.372C16.0987 17.2919 19.0801 15.8013 19.8254 11.3292C20.1236 9.54039 19.9745 7.90064 19.0801 6.85716C18.931 6.55902 18.6329 6.26088 18.1857 6.11182Z" fill="#139AD6"/>
<path d="M17.1431 5.66449C16.994 5.66449 16.8449 5.51542 16.6959 5.51542C16.5468 5.51542 16.3977 5.51542 16.2487 5.36635C15.6524 5.21728 15.0561 5.21729 14.3108 5.21729H8.49711C8.34805 5.21729 8.19898 5.21728 8.04991 5.36635C7.75177 5.51542 7.6027 5.81356 7.6027 6.11169L6.41016 13.8633V14.1614C6.55922 13.7142 7.00643 13.267 7.45364 13.267H9.68966C14.0126 13.267 17.2922 11.4782 18.3356 6.5589C18.3356 6.40983 18.3356 6.26076 18.4847 6.11169C18.1866 5.96263 18.0375 5.81356 17.7394 5.81356C17.2922 5.66449 17.2922 5.66449 17.1431 5.66449Z" fill="#232C65"/>
</svg>
