<svg xmlns="http://www.w3.org/2000/svg" width="37.676" height="37.743" viewBox="0 0 37.676 37.743">
  <g id="Group_2130" data-name="Group 2130" transform="translate(0.499 0.499)">
    <rect id="Rectangle_168" data-name="Rectangle 168" width="37.039" height="36.744" transform="translate(0.001 0.296)" fill="none"/>
    <g id="Group_857" data-name="Group 857" transform="translate(0 0)">
      <path id="Union_19" data-name="Union 19" d="M3.06,31.841V5.657H2.543A2.7,2.7,0,0,1,0,2.829,2.7,2.7,0,0,1,2.543,0H14.169a2.7,2.7,0,0,1,2.543,2.828,2.7,2.7,0,0,1-2.543,2.828h-.517V31.841a5.115,5.115,0,0,1-5.295,4.9A5.116,5.116,0,0,1,3.06,31.841Zm8.871-11V5.657H4.78V20.839Z" fill="#1a1a1a" stroke="rgba(0,0,0,0)" stroke-miterlimit="10" stroke-width="1"/>
    </g>
    <g id="Group_1063" data-name="Group 1063" transform="translate(17.598 6.677)">
      <path id="Path_2691" data-name="Path 2691" d="M4072.632,768.628h18.579" transform="translate(-4072.632 -768.628)" fill="none" stroke="#1a1a1a" stroke-linecap="round" stroke-width="2"/>
      <path id="Path_2692" data-name="Path 2692" d="M4072.632,768.628h18.579" transform="translate(-4072.632 -760.079)" fill="none" stroke="#1a1a1a" stroke-linecap="round" stroke-width="2"/>
      <path id="Path_2693" data-name="Path 2693" d="M4072.632,768.628h18.579" transform="translate(-4072.632 -751.529)" fill="none" stroke="#1a1a1a" stroke-linecap="round" stroke-width="2"/>
      <path id="Path_2694" data-name="Path 2694" d="M4072.632,768.628h18.579" transform="translate(-4072.632 -742.979)" fill="none" stroke="#1a1a1a" stroke-linecap="round" stroke-width="2"/>
    </g>
  </g>
</svg>
