<svg id="_file_copy" data-name=" file_copy" xmlns="http://www.w3.org/2000/svg" width="31" height="30" viewBox="0 0 31 30">
  <rect id="Path" width="31" height="30" fill="rgba(0,0,0,0)"/>
  <path id="Icon" d="M25.428,30H8.959a2.863,2.863,0,0,1-2.976-2.727L6,8.182A2.863,2.863,0,0,1,8.974,5.455H18.2a3.137,3.137,0,0,1,2.124.8l7.224,6.587a2.614,2.614,0,0,1,.868,1.923v12.5A2.872,2.872,0,0,1,25.428,30ZM17.949,7.5h0v6.136A1.436,1.436,0,0,0,19.444,15h6.731ZM1.5,21.818A1.436,1.436,0,0,1,0,20.454V2.728A2.872,2.872,0,0,1,2.991,0H19.444a1.436,1.436,0,0,1,1.5,1.365,1.436,1.436,0,0,1-1.5,1.363H4.487a1.436,1.436,0,0,0-1.5,1.363V20.454A1.436,1.436,0,0,1,1.5,21.818Z" transform="translate(1.5)"/>
</svg>
